<svg width="167" height="38" viewBox="0 0 167 38" fill="none" xmlns="http://www.w3.org/2000/svg">
    <mask id="mask0_22108_26850" style="mask-type:luminance" maskUnits="userSpaceOnUse" x="14" y="14" width="9" height="9">
    <path d="M15.5812 15.932C14.1485 17.5278 14.2787 19.9869 15.8677 21.4388C17.4567 22.8777 19.9054 22.7599 21.3511 21.1511C22.7838 19.5553 22.6535 17.0962 21.0645 15.6573C20.3221 14.9902 19.3974 14.6501 18.4596 14.6501C17.4046 14.6501 16.3496 15.0818 15.5812 15.932Z" fill="white"/>
    </mask>
    <g mask="url(#mask0_22108_26850)">
    <path d="M22.7707 14.6501H14.1484V22.8777H22.7707V14.6501Z" fill="url(#paint0_radial_22108_26850)"/>
    </g>
    <mask id="mask1_22108_26850" style="mask-type:luminance" maskUnits="userSpaceOnUse" x="1" y="2" width="19" height="17">
    <path d="M7.36172 3.72803C4.82192 5.65084 2.80311 8.21458 1.51367 11.1838C3.05058 11.5631 7.63524 13.0674 9.74522 18.7835C10.3834 18.5742 11.751 17.7763 12.6888 14.6893C13.9652 10.556 16.3747 6.57954 19.5006 5.24535C17.6251 3.37486 15.3849 2.36768 12.8321 2.36768C11.1519 2.36768 9.31541 2.81241 7.36172 3.72803Z" fill="white"/>
    </mask>
    <g mask="url(#mask1_22108_26850)">
    <path d="M-5.94922 13.9045L6.85396 -5.88599L26.9639 7.23358L14.1738 27.0372L-5.94922 13.9045Z" fill="url(#paint1_linear_22108_26850)"/>
    </g>
    <mask id="mask2_22108_26850" style="mask-type:luminance" maskUnits="userSpaceOnUse" x="7" y="0" width="26" height="11">
    <path d="M7.36133 3.72789C14.1992 0.510132 19.4612 3.16544 22.6783 9.87564C27.81 10.8043 31.3005 8.2406 32.6812 6.71021C29.2948 2.60298 24.1891 0 18.4583 0C14.2904 0 10.4482 1.38651 7.36133 3.72789Z" fill="white"/>
    </mask>
    <g mask="url(#mask2_22108_26850)">
    <path d="M10.9038 -8.8291L36.419 1.51743L29.1252 19.6337L3.62305 9.28714L10.9038 -8.8291Z" fill="url(#paint2_linear_22108_26850)"/>
    </g>
    <mask id="mask3_22108_26850" style="mask-type:luminance" maskUnits="userSpaceOnUse" x="6" y="24" width="18" height="14">
    <path d="M11.2441 35.6049C14.1746 36.8475 17.3917 37.3315 20.5958 36.9653C20.1529 35.4349 19.15 30.6998 23.0314 26.0039C22.5364 25.5592 21.1688 24.7744 18.0299 25.4807C13.836 26.4356 9.19923 26.331 6.47708 24.2773C5.35697 28.5415 6.78967 32.4787 11.2441 35.6049Z" fill="white"/>
    </mask>
    <g mask="url(#mask3_22108_26850)">
    <path d="M22.9793 38.2603L4.67969 37.2924L5.40906 23.3618L23.6956 24.3167L22.9793 38.2603Z" fill="url(#paint3_linear_22108_26850)"/>
    </g>
    <mask id="mask4_22108_26850" style="mask-type:luminance" maskUnits="userSpaceOnUse" x="0" y="12" width="12" height="24">
    <path d="M2.47796 27.8087C4.5619 31.432 7.67478 34.0873 11.2435 35.6046C5.05683 31.275 4.70517 25.3627 8.88607 19.2019C7.11472 14.2706 3.15524 12.5178 1.16248 12.0862C-0.687017 17.0829 -0.387451 22.8382 2.47796 27.8087Z" fill="white"/>
    </mask>
    <g mask="url(#mask4_22108_26850)">
    <path d="M-0.453425 37.2526L-3.91797 12.5439L11.0082 10.438L14.4728 35.1467L-0.453425 37.2526Z" fill="url(#paint4_linear_22108_26850)"/>
    </g>
    <mask id="mask5_22108_26850" style="mask-type:luminance" maskUnits="userSpaceOnUse" x="22" y="7" width="15" height="20">
    <path d="M22.6136 10.8437C22.4703 11.4977 22.4833 13.0804 24.6714 15.461C27.602 18.6396 29.8162 22.7206 29.4124 26.1084C33.6454 24.9443 36.3285 21.7396 36.7843 16.2982C36.3936 13.1327 35.1953 10.085 33.2807 7.49512C32.1866 8.62002 28.5918 11.8639 22.6136 10.8437Z" fill="white"/>
    </mask>
    <g mask="url(#mask5_22108_26850)">
    <path d="M33.8284 1.66113L44.2871 22.2626L25.4275 31.9159L14.9688 11.3144L33.8284 1.66113Z" fill="url(#paint5_linear_22108_26850)"/>
    </g>
    <mask id="mask6_22108_26850" style="mask-type:luminance" maskUnits="userSpaceOnUse" x="21" y="16" width="16" height="21">
    <path d="M23.8239 26.5399C20.4506 30.5425 20.9194 34.859 21.5446 36.821C26.7805 35.9316 31.5866 32.7923 34.439 27.8087C36.5229 24.1854 37.2523 20.1436 36.7704 16.2849C36.1452 23.8453 31.2219 27.0893 23.8239 26.5399Z" fill="white"/>
    </mask>
    <g mask="url(#mask6_22108_26850)">
    <path d="M47.1773 29.0383L26.8198 45.0093L10.5391 24.0678L30.8835 8.09668L47.1773 29.0383Z" fill="url(#paint6_linear_22108_26850)"/>
    </g>
    <path d="M42.9194 3.89795H42.5547V33.1848H42.9194V3.89795Z" fill="#414042"/>
    <path d="M50.1272 16.4687H49V7.61865H51.6027C53.6111 7.61865 54.8613 8.4625 54.8613 10.3766C54.8613 12.2084 53.6111 13.2169 51.5003 13.2169H50.1477V16.4687H50.1272ZM50.1272 12.1466H51.4798C52.8734 12.1466 53.6316 11.5703 53.6316 10.3972C53.6316 9.18285 52.8734 8.66832 51.4798 8.66832H50.1272V12.1466Z" fill="#414042"/>
    <path d="M57.3594 12.0437C57.3594 9.20339 58.9784 7.49512 61.3147 7.49512C63.9379 7.49512 65.352 9.36804 65.352 12.0437C65.352 15.0486 63.6715 16.5922 61.3557 16.5922C58.8964 16.5922 57.3594 14.8633 57.3594 12.0437ZM64.1224 12.0437C64.1224 9.61502 63.0362 8.54478 61.2942 8.54478C59.7367 8.54478 58.548 9.67677 58.548 12.0437C58.548 14.3694 59.7162 15.5425 61.4377 15.5425C63.0977 15.5425 64.1224 14.3282 64.1224 12.0437Z" fill="#414042"/>
    <path d="M74.4332 16.2423C73.9619 16.4687 73.2651 16.6128 72.5068 16.6128C69.7606 16.6128 68.1211 14.8839 68.1211 12.1671C68.1211 9.16223 69.8016 7.49512 72.4453 7.49512C73.4495 7.49512 74.0438 7.68035 74.4537 7.845L74.2488 8.8535C73.6954 8.64769 73.1216 8.56536 72.5683 8.56536C70.4779 8.56536 69.3507 9.77968 69.3507 12.0642C69.3507 14.2665 70.6214 15.5631 72.6912 15.5631C73.2446 15.5631 73.8389 15.4602 74.2693 15.2544L74.4332 16.2423Z" fill="#414042"/>
    <path d="M78.2256 11.3645H81.9145C81.8325 9.45037 80.6029 8.56536 78.8609 8.56536C78.3486 8.56536 77.6108 8.62711 76.996 8.87408L76.791 7.94791C77.2214 7.72151 78.1436 7.49512 79.0453 7.49512C81.5661 7.49512 83.1646 8.8535 83.1646 11.9407C83.1646 14.8428 81.6891 16.6128 78.7174 16.6128C77.7952 16.6128 77.2214 16.4481 76.8115 16.304L77.0164 15.2955C77.5493 15.4808 78.2461 15.5425 78.7174 15.5425C80.6439 15.5425 81.894 14.534 81.935 12.4141H78.2256V11.3645Z" fill="#414042"/>
    <path d="M93.0169 16.4687H91.8693V12.3936H87.4221V16.4687H86.2949V7.61865H87.4221V11.3645H91.8693V7.61865H93.0169V16.4687Z" fill="#414042"/>
    <path d="M101.462 16.4687H96.5234V7.61865H101.462V8.6889H97.6711V11.3645H101.135V12.3936H97.6711V15.4191H101.462V16.4687Z" fill="#414042"/>
    <path d="M105.789 16.4687H104.662V7.61865H107.265C109.273 7.61865 110.523 8.4625 110.523 10.3766C110.523 12.2084 109.273 13.2169 107.162 13.2169H105.81V16.4687H105.789ZM105.789 12.1466H107.142C108.535 12.1466 109.294 11.5703 109.294 10.3972C109.294 9.18285 108.535 8.66832 107.142 8.66832H105.789V12.1466Z" fill="#414042"/>
    <path d="M114.539 16.4687H113.412V7.61865H118.085V8.6889H114.539V16.4687Z" fill="#414042"/>
    <path d="M119.908 12.0437C119.908 9.20339 121.527 7.49512 123.864 7.49512C126.487 7.49512 127.901 9.36804 127.901 12.0437C127.901 15.0486 126.22 16.5922 123.905 16.5922C121.445 16.5922 119.908 14.8633 119.908 12.0437ZM126.671 12.0437C126.671 9.61502 125.585 8.54478 123.843 8.54478C122.286 8.54478 121.097 9.67677 121.097 12.0437C121.097 14.3694 122.265 15.5425 123.987 15.5425C125.667 15.5425 126.671 14.3282 126.671 12.0437Z" fill="#414042"/>
    <path d="M135.668 14.1019H131.897L131.036 16.4687H129.889L133.25 7.61865H134.377L137.676 16.4687H136.488L135.668 14.1019ZM132.266 13.0728H135.299L133.824 8.91529H133.783L132.266 13.0728Z" fill="#414042"/>
    <path d="M142.429 16.4687H141.302V8.6889H138.699V7.61865H145.032V8.6889H142.429V16.4687Z" fill="#414042"/>
    <path d="M147.062 12.0437C147.062 9.20339 148.682 7.49512 151.018 7.49512C153.641 7.49512 155.055 9.36804 155.055 12.0437C155.055 15.0486 153.375 16.5922 151.059 16.5922C148.6 16.5922 147.062 14.8633 147.062 12.0437ZM153.826 12.0437C153.826 9.61502 152.739 8.54478 150.997 8.54478C149.44 8.54478 148.251 9.67677 148.251 12.0437C148.251 14.3694 149.419 15.5425 151.141 15.5425C152.801 15.5425 153.826 14.3282 153.826 12.0437Z" fill="#414042"/>
    <path d="M166.777 16.4687H165.65L165.117 9.55333L162.883 16.4687H161.695L159.481 9.57391L158.928 16.4687H157.801L158.559 7.61865H159.932L162.309 15.2338L164.646 7.61865H166.039L166.777 16.4687Z" fill="#414042"/>
    <path d="M49.9017 30.0527H49V22.9727H51.0699C52.6684 22.9727 53.6726 23.6313 53.6726 25.1749C53.6726 26.6362 52.6684 27.4389 50.9879 27.4389H49.9017V30.0527ZM49.9017 26.595H50.9879C52.1151 26.595 52.7094 26.1422 52.7094 25.1955C52.7094 24.2281 52.1151 23.8165 50.9879 23.8165H49.9017V26.595Z" fill="#035FA2"/>
    <path d="M55.5977 26.5123C55.5977 24.2484 56.8888 22.8694 58.7537 22.8694C60.8441 22.8694 61.9713 24.3718 61.9713 26.5123C61.9713 28.9204 60.6187 30.1553 58.7742 30.1553C56.8273 30.1553 55.5977 28.7557 55.5977 26.5123ZM61.0081 26.5123C61.0081 24.5777 60.1473 23.7132 58.7537 23.7132C57.5241 23.7132 56.5609 24.6188 56.5609 26.5123C56.5609 28.3647 57.4831 29.3114 58.8767 29.3114C60.1883 29.3114 61.0081 28.3441 61.0081 26.5123Z" fill="#035FA2"/>
    <path d="M69.146 29.8671C68.7566 30.0524 68.2238 30.1553 67.6089 30.1553C65.4161 30.1553 64.084 28.7763 64.084 26.5947C64.084 24.1866 65.4366 22.8694 67.5475 22.8694C68.3467 22.8694 68.8181 23.0135 69.1665 23.1369L69.0025 23.9396C68.5517 23.775 68.1008 23.7132 67.6499 23.7132C65.9694 23.7132 65.0677 24.6806 65.0677 26.5123C65.0677 28.2823 66.0924 29.3114 67.7319 29.3114C68.1828 29.3114 68.6541 29.2291 69.0025 29.0645L69.146 29.8671Z" fill="#035FA2"/>
    <path d="M75.4979 28.1592H72.4852L71.8089 30.0527H70.8867L73.5714 22.9727H74.4732L77.1169 30.0527H76.1742L75.4979 28.1592ZM72.7722 27.336H75.2109L74.0223 24.0017H73.9813L72.7722 27.336Z" fill="#035FA2"/>
    <path d="M80.8066 30.0527H79.9048V23.8165H77.8145V22.9727H82.8969V23.8165H80.8066V30.0527Z" fill="#035FA2"/>
    <path d="M84.4121 26.5123C84.4121 24.2484 85.7032 22.8694 87.5682 22.8694C89.6586 22.8694 90.7857 24.3718 90.7857 26.5123C90.7857 28.9204 89.4331 30.1553 87.5887 30.1553C85.6417 30.1553 84.4121 28.7557 84.4121 26.5123ZM89.843 26.5123C89.843 24.5777 88.9823 23.7132 87.5887 23.7132C86.359 23.7132 85.3958 24.6188 85.3958 26.5123C85.3958 28.3647 86.318 29.3114 87.7116 29.3114C89.0232 29.3114 89.843 28.3441 89.843 26.5123Z" fill="#035FA2"/>
    <path d="M100.109 30.0527H99.2076L98.7773 24.5163L96.9943 30.0527H96.0311L94.2686 24.5369L93.8177 30.0527H92.916L93.5103 22.9727H94.6375L96.5434 29.0648L98.4084 22.9727H99.5151L100.109 30.0527Z" fill="#035FA2"/>
    <defs>
    <radialGradient id="paint0_radial_22108_26850" cx="0" cy="0" r="1" gradientUnits="userSpaceOnUse" gradientTransform="translate(17.2182 16.3841) scale(5.45809 5.48144)">
    <stop stop-color="#4495D1"/>
    <stop offset="1" stop-color="#15256D"/>
    </radialGradient>
    <linearGradient id="paint1_linear_22108_26850" x1="6.54972" y1="16.6867" x2="15.7834" y2="2.5287" gradientUnits="userSpaceOnUse">
    <stop stop-color="#4495D1"/>
    <stop offset="1" stop-color="#15256D"/>
    </linearGradient>
    <linearGradient id="paint2_linear_22108_26850" x1="8.54447" y1="0.740887" x2="31.3723" y2="9.92463" gradientUnits="userSpaceOnUse">
    <stop stop-color="#4495D1"/>
    <stop offset="1" stop-color="#15256D"/>
    </linearGradient>
    <linearGradient id="paint3_linear_22108_26850" x1="22.7347" y1="31.251" x2="5.90605" y2="30.3728" gradientUnits="userSpaceOnUse">
    <stop stop-color="#4495D1"/>
    <stop offset="1" stop-color="#15256D"/>
    </linearGradient>
    <linearGradient id="paint4_linear_22108_26850" x1="7.00099" y1="36.1869" x2="3.54953" y2="11.7331" gradientUnits="userSpaceOnUse">
    <stop stop-color="#4495D1"/>
    <stop offset="1" stop-color="#15256D"/>
    </linearGradient>
    <linearGradient id="paint5_linear_22108_26850" x1="25.7986" y1="9.21269" x2="33.5014" y2="24.2659" gradientUnits="userSpaceOnUse">
    <stop stop-color="#4495D1"/>
    <stop offset="1" stop-color="#15256D"/>
    </linearGradient>
    <linearGradient id="paint6_linear_22108_26850" x1="38.7415" y1="18.7991" x2="19.2999" y2="33.9238" gradientUnits="userSpaceOnUse">
    <stop stop-color="#4495D1"/>
    <stop offset="1" stop-color="#15256D"/>
    </linearGradient>
    </defs>
    </svg>
    