<svg width="163" height="26" viewBox="0 0 163 26" fill="none" xmlns="http://www.w3.org/2000/svg">
    <path d="M52.452 15C52.1747 14.5733 51.8547 14.1253 51.492 13.656C51.1293 13.1867 50.7453 12.7333 50.34 12.296C49.9453 11.8587 49.5347 11.4427 49.108 11.048C48.6813 10.6533 48.26 10.312 47.844 10.024V15H45.828V3.912H47.844V8.488C48.196 8.136 48.564 7.76267 48.948 7.368C49.332 6.96267 49.7107 6.55733 50.084 6.152C50.468 5.736 50.8307 5.336 51.172 4.952C51.5133 4.568 51.8227 4.22133 52.1 3.912H54.516C54.164 4.31733 53.7907 4.73867 53.396 5.176C53.0013 5.61333 52.596 6.056 52.18 6.504C51.764 6.94133 51.3427 7.37867 50.916 7.816C50.5 8.25333 50.0893 8.66933 49.684 9.064C50.132 9.40533 50.5853 9.80533 51.044 10.264C51.5133 10.712 51.972 11.1973 52.42 11.72C52.868 12.232 53.2947 12.7707 53.7 13.336C54.116 13.8907 54.4947 14.4453 54.836 15H52.452ZM58.0635 15C57.5302 13.9013 56.9808 12.6427 56.4155 11.224C55.8608 9.79467 55.3542 8.264 54.8955 6.632H56.9595C57.0768 7.10133 57.2102 7.608 57.3595 8.152C57.5195 8.68533 57.6848 9.224 57.8555 9.768C58.0368 10.3013 58.2182 10.824 58.3995 11.336C58.5915 11.8373 58.7675 12.2907 58.9275 12.696C59.0875 12.2907 59.2582 11.8373 59.4395 11.336C59.6208 10.824 59.7968 10.3013 59.9675 9.768C60.1488 9.224 60.3195 8.68533 60.4795 8.152C60.6395 7.608 60.7782 7.10133 60.8955 6.632H62.8955C62.4368 8.264 61.9248 9.79467 61.3595 11.224C60.8048 12.6427 60.2608 13.9013 59.7275 15H58.0635ZM67.2854 13.64C67.8827 13.64 68.336 13.608 68.6454 13.544V11.4C68.5387 11.368 68.384 11.336 68.1814 11.304C67.9787 11.272 67.7547 11.256 67.5094 11.256C67.296 11.256 67.0774 11.272 66.8534 11.304C66.64 11.336 66.4427 11.3947 66.2614 11.48C66.0907 11.5653 65.952 11.688 65.8454 11.848C65.7387 11.9973 65.6854 12.1893 65.6854 12.424C65.6854 12.8827 65.8294 13.2027 66.1174 13.384C66.4054 13.5547 66.7947 13.64 67.2854 13.64ZM67.1254 6.424C67.7654 6.424 68.304 6.504 68.7414 6.664C69.1787 6.824 69.5254 7.048 69.7814 7.336C70.048 7.624 70.2347 7.976 70.3414 8.392C70.4587 8.79733 70.5174 9.24533 70.5174 9.736V14.808C70.2187 14.872 69.7654 14.9467 69.1574 15.032C68.56 15.128 67.8827 15.176 67.1254 15.176C66.624 15.176 66.1654 15.128 65.7494 15.032C65.3334 14.936 64.976 14.7813 64.6774 14.568C64.3894 14.3547 64.16 14.0773 63.9894 13.736C63.8294 13.3947 63.7494 12.9733 63.7494 12.472C63.7494 11.992 63.84 11.5867 64.0214 11.256C64.2134 10.9253 64.4694 10.6587 64.7894 10.456C65.1094 10.2427 65.4774 10.0933 65.8934 10.008C66.32 9.912 66.7627 9.864 67.2214 9.864C67.4347 9.864 67.6587 9.88 67.8934 9.912C68.128 9.93333 68.3787 9.976 68.6454 10.04V9.72C68.6454 9.496 68.6187 9.28267 68.5654 9.08C68.512 8.87733 68.416 8.70133 68.2774 8.552C68.1494 8.392 67.9734 8.26933 67.7494 8.184C67.536 8.09867 67.264 8.056 66.9334 8.056C66.4854 8.056 66.0747 8.088 65.7014 8.152C65.328 8.216 65.024 8.29067 64.7894 8.376L64.5494 6.808C64.7947 6.72267 65.152 6.63733 65.6214 6.552C66.0907 6.46667 66.592 6.424 67.1254 6.424ZM72.8883 6.904C73.2616 6.79733 73.7469 6.696 74.3443 6.6C74.9416 6.504 75.6029 6.456 76.3283 6.456C77.0109 6.456 77.5816 6.552 78.0403 6.744C78.4989 6.92533 78.8616 7.18667 79.1283 7.528C79.4056 7.85867 79.5976 8.264 79.7043 8.744C79.8216 9.21333 79.8802 9.73067 79.8802 10.296V15H77.9443V10.6C77.9443 10.152 77.9123 9.77333 77.8483 9.464C77.7949 9.144 77.6989 8.888 77.5603 8.696C77.4323 8.49333 77.2509 8.34933 77.0163 8.264C76.7923 8.168 76.5149 8.12 76.1843 8.12C75.9389 8.12 75.6829 8.136 75.4163 8.168C75.1496 8.2 74.9523 8.22667 74.8243 8.248V15H72.8883V6.904ZM82.1516 4.424L84.0876 4.104V6.632H87.0636V8.248H84.0876V11.656C84.0876 12.328 84.1943 12.808 84.4076 13.096C84.621 13.384 84.9836 13.528 85.4956 13.528C85.8476 13.528 86.157 13.4907 86.4236 13.416C86.701 13.3413 86.9196 13.272 87.0796 13.208L87.3996 14.744C87.1756 14.84 86.8823 14.936 86.5196 15.032C86.157 15.1387 85.7303 15.192 85.2396 15.192C84.6423 15.192 84.141 15.112 83.7356 14.952C83.341 14.792 83.0263 14.5627 82.7916 14.264C82.557 13.9547 82.3916 13.5867 82.2956 13.16C82.1996 12.7227 82.1516 12.2267 82.1516 11.672V4.424ZM91.0471 13.336C91.1645 13.3467 91.3191 13.3573 91.5111 13.368C91.7031 13.368 91.9645 13.368 92.2951 13.368C93.6498 13.368 94.6578 13.0267 95.3191 12.344C95.9911 11.6507 96.3271 10.6853 96.3271 9.448C96.3271 8.18933 96.0018 7.224 95.3511 6.552C94.7005 5.88 93.6925 5.544 92.3271 5.544C91.7298 5.544 91.3031 5.56 91.0471 5.592V13.336ZM98.4391 9.448C98.4391 10.408 98.2898 11.2453 97.9911 11.96C97.6925 12.664 97.2658 13.256 96.7111 13.736C96.1671 14.2053 95.5058 14.5573 94.7271 14.792C93.9591 15.016 93.1058 15.128 92.1671 15.128C91.7191 15.128 91.2125 15.1067 90.6471 15.064C90.0818 15.032 89.5431 14.9573 89.0311 14.84V4.072C89.5431 3.95467 90.0871 3.88 90.6631 3.848C91.2391 3.816 91.7511 3.8 92.1991 3.8C93.1271 3.8 93.9751 3.912 94.7431 4.136C95.5111 4.34933 96.1671 4.69067 96.7111 5.16C97.2658 5.61867 97.6925 6.20533 97.9911 6.92C98.2898 7.624 98.4391 8.46667 98.4391 9.448ZM100.081 10.856C100.081 10.12 100.187 9.47467 100.401 8.92C100.625 8.36533 100.918 7.90667 101.281 7.544C101.643 7.17067 102.059 6.89333 102.529 6.712C102.998 6.52 103.478 6.424 103.969 6.424C105.121 6.424 106.017 6.78133 106.657 7.496C107.307 8.21067 107.633 9.27733 107.633 10.696C107.633 10.8027 107.627 10.9253 107.617 11.064C107.617 11.192 107.611 11.3093 107.601 11.416H102.081C102.134 12.088 102.369 12.6107 102.785 12.984C103.211 13.3467 103.825 13.528 104.625 13.528C105.094 13.528 105.521 13.4853 105.905 13.4C106.299 13.3147 106.609 13.224 106.833 13.128L107.089 14.712C106.982 14.7653 106.833 14.824 106.641 14.888C106.459 14.9413 106.246 14.9893 106.001 15.032C105.766 15.0853 105.51 15.128 105.233 15.16C104.955 15.192 104.673 15.208 104.385 15.208C103.649 15.208 103.009 15.1013 102.465 14.888C101.921 14.664 101.473 14.36 101.121 13.976C100.769 13.5813 100.507 13.1227 100.337 12.6C100.166 12.0667 100.081 11.4853 100.081 10.856ZM105.697 9.992C105.697 9.72533 105.659 9.47467 105.585 9.24C105.51 8.99467 105.398 8.78667 105.249 8.616C105.11 8.43467 104.934 8.296 104.721 8.2C104.518 8.09333 104.273 8.04 103.985 8.04C103.686 8.04 103.425 8.09867 103.201 8.216C102.977 8.32267 102.785 8.46667 102.625 8.648C102.475 8.82933 102.358 9.03733 102.273 9.272C102.187 9.50667 102.129 9.74667 102.097 9.992H105.697ZM109.589 4.424L111.525 4.104V6.632H114.501V8.248H111.525V11.656C111.525 12.328 111.632 12.808 111.845 13.096C112.058 13.384 112.421 13.528 112.933 13.528C113.285 13.528 113.594 13.4907 113.861 13.416C114.138 13.3413 114.357 13.272 114.517 13.208L114.837 14.744C114.613 14.84 114.32 14.936 113.957 15.032C113.594 15.1387 113.168 15.192 112.677 15.192C112.08 15.192 111.578 15.112 111.173 14.952C110.778 14.792 110.464 14.5627 110.229 14.264C109.994 13.9547 109.829 13.5867 109.733 13.16C109.637 12.7227 109.589 12.2267 109.589 11.672V4.424ZM115.768 10.856C115.768 10.12 115.875 9.47467 116.088 8.92C116.312 8.36533 116.605 7.90667 116.968 7.544C117.331 7.17067 117.747 6.89333 118.216 6.712C118.685 6.52 119.165 6.424 119.656 6.424C120.808 6.424 121.704 6.78133 122.344 7.496C122.995 8.21067 123.32 9.27733 123.32 10.696C123.32 10.8027 123.315 10.9253 123.304 11.064C123.304 11.192 123.299 11.3093 123.288 11.416H117.768C117.821 12.088 118.056 12.6107 118.472 12.984C118.899 13.3467 119.512 13.528 120.312 13.528C120.781 13.528 121.208 13.4853 121.592 13.4C121.987 13.3147 122.296 13.224 122.52 13.128L122.776 14.712C122.669 14.7653 122.52 14.824 122.328 14.888C122.147 14.9413 121.933 14.9893 121.688 15.032C121.453 15.0853 121.197 15.128 120.92 15.16C120.643 15.192 120.36 15.208 120.072 15.208C119.336 15.208 118.696 15.1013 118.152 14.888C117.608 14.664 117.16 14.36 116.808 13.976C116.456 13.5813 116.195 13.1227 116.024 12.6C115.853 12.0667 115.768 11.4853 115.768 10.856ZM121.384 9.992C121.384 9.72533 121.347 9.47467 121.272 9.24C121.197 8.99467 121.085 8.78667 120.936 8.616C120.797 8.43467 120.621 8.296 120.408 8.2C120.205 8.09333 119.96 8.04 119.672 8.04C119.373 8.04 119.112 8.09867 118.888 8.216C118.664 8.32267 118.472 8.46667 118.312 8.648C118.163 8.82933 118.045 9.03733 117.96 9.272C117.875 9.50667 117.816 9.74667 117.784 9.992H121.384ZM124.909 10.824C124.909 10.2053 125.005 9.62933 125.197 9.096C125.389 8.552 125.661 8.08267 126.013 7.688C126.375 7.29333 126.813 6.984 127.325 6.76C127.837 6.536 128.413 6.424 129.053 6.424C129.842 6.424 130.589 6.568 131.293 6.856L130.877 8.44C130.653 8.344 130.397 8.264 130.109 8.2C129.831 8.136 129.533 8.104 129.213 8.104C128.455 8.104 127.879 8.344 127.485 8.824C127.09 9.29333 126.893 9.96 126.893 10.824C126.893 11.656 127.079 12.3173 127.453 12.808C127.826 13.288 128.455 13.528 129.341 13.528C129.671 13.528 129.997 13.496 130.317 13.432C130.637 13.368 130.914 13.288 131.149 13.192L131.421 14.792C131.207 14.8987 130.882 14.9947 130.445 15.08C130.018 15.1653 129.575 15.208 129.117 15.208C128.402 15.208 127.778 15.1013 127.245 14.888C126.722 14.664 126.285 14.36 125.933 13.976C125.591 13.5813 125.335 13.1173 125.165 12.584C124.994 12.04 124.909 11.4533 124.909 10.824ZM132.824 4.424L134.76 4.104V6.632H137.736V8.248H134.76V11.656C134.76 12.328 134.866 12.808 135.08 13.096C135.293 13.384 135.656 13.528 136.168 13.528C136.52 13.528 136.829 13.4907 137.096 13.416C137.373 13.3413 137.592 13.272 137.752 13.208L138.072 14.744C137.848 14.84 137.554 14.936 137.192 15.032C136.829 15.1387 136.402 15.192 135.911 15.192C135.314 15.192 134.813 15.112 134.408 14.952C134.013 14.792 133.698 14.5627 133.464 14.264C133.229 13.9547 133.064 13.5867 132.968 13.16C132.872 12.7227 132.824 12.2267 132.824 11.672V4.424ZM141.559 15H139.623V6.632H141.559V15ZM141.767 4.184C141.767 4.54667 141.65 4.83467 141.415 5.048C141.18 5.26133 140.903 5.368 140.583 5.368C140.252 5.368 139.97 5.26133 139.735 5.048C139.5 4.83467 139.383 4.54667 139.383 4.184C139.383 3.81067 139.5 3.51733 139.735 3.304C139.97 3.09067 140.252 2.984 140.583 2.984C140.903 2.984 141.18 3.09067 141.415 3.304C141.65 3.51733 141.767 3.81067 141.767 4.184ZM151.597 10.808C151.597 11.4693 151.501 12.072 151.309 12.616C151.117 13.16 150.845 13.624 150.493 14.008C150.141 14.392 149.714 14.6907 149.213 14.904C148.722 15.1173 148.178 15.224 147.581 15.224C146.984 15.224 146.44 15.1173 145.949 14.904C145.458 14.6907 145.037 14.392 144.685 14.008C144.333 13.624 144.056 13.16 143.853 12.616C143.661 12.072 143.565 11.4693 143.565 10.808C143.565 10.1467 143.661 9.54933 143.853 9.016C144.056 8.472 144.333 8.008 144.685 7.624C145.048 7.24 145.474 6.94667 145.965 6.744C146.456 6.53067 146.994 6.424 147.581 6.424C148.168 6.424 148.706 6.53067 149.197 6.744C149.698 6.94667 150.125 7.24 150.477 7.624C150.829 8.008 151.101 8.472 151.293 9.016C151.496 9.54933 151.597 10.1467 151.597 10.808ZM149.613 10.808C149.613 9.976 149.432 9.32 149.069 8.84C148.717 8.34933 148.221 8.104 147.581 8.104C146.941 8.104 146.44 8.34933 146.077 8.84C145.725 9.32 145.549 9.976 145.549 10.808C145.549 11.6507 145.725 12.3173 146.077 12.808C146.44 13.2987 146.941 13.544 147.581 13.544C148.221 13.544 148.717 13.2987 149.069 12.808C149.432 12.3173 149.613 11.6507 149.613 10.808ZM153.591 6.904C153.965 6.79733 154.45 6.696 155.047 6.6C155.645 6.504 156.306 6.456 157.031 6.456C157.714 6.456 158.285 6.552 158.743 6.744C159.202 6.92533 159.565 7.18667 159.831 7.528C160.109 7.85867 160.301 8.264 160.407 8.744C160.525 9.21333 160.583 9.73067 160.583 10.296V15H158.647V10.6C158.647 10.152 158.615 9.77333 158.551 9.464C158.498 9.144 158.402 8.888 158.263 8.696C158.135 8.49333 157.954 8.34933 157.719 8.264C157.495 8.168 157.218 8.12 156.887 8.12C156.642 8.12 156.386 8.136 156.119 8.168C155.853 8.2 155.655 8.22667 155.527 8.248V15H153.591V6.904Z" fill="#414042"/>
    <g clip-path="url(#clip0_24527_1355)">
    <path d="M26.9402 1.04796C28.5274 1.66656 29.943 2.57385 31.2299 3.85229C31.4014 4.01725 31.573 4.22345 31.7875 4.42965C31.5301 4.38841 31.4014 4.30593 31.2299 4.18221C29.1279 2.40888 26.6399 1.25416 23.8088 1.0892C21.5352 0.96548 19.2617 0.96548 16.9882 1.00672V1.33664H22.479C25.9107 1.33664 28.699 2.69757 30.9296 5.04825C31.0154 5.13073 31.0583 5.29569 31.1441 5.41941C29.3853 3.97601 27.4979 2.90377 25.2243 2.40888C22.9508 1.914 20.7202 2.16144 18.4467 2.24392C18.7041 2.40888 18.9615 2.45012 19.1759 2.45012C20.377 2.45012 21.5781 2.45012 22.7792 2.45012C25.9536 2.53261 28.4416 3.97601 30.2861 6.3267C28.8706 5.00701 27.1976 4.09973 25.3101 3.56361C23.3798 3.06873 21.4495 3.23369 19.4762 3.27493C21.3208 3.52237 23.2511 3.56361 25.0528 3.93477C26.9402 4.34717 28.3558 5.54313 29.4711 7.06902C27.6266 5.41941 25.4817 4.38841 22.9508 4.30593C21.0634 4.26469 19.1759 4.30593 17.2456 4.30593C17.1598 4.30593 17.074 4.34717 16.9882 4.38841V4.63585H17.7174C19.4762 4.63585 21.2779 4.59461 22.9937 4.67709C25.353 4.80081 27.1118 5.95554 28.4845 7.72886C26.7686 6.24422 24.7954 5.41941 22.4361 5.41941H16.9882V5.74933C18.7899 5.74933 20.6344 5.79057 22.4361 5.74933C24.1948 5.70809 26.7257 6.82158 27.5837 8.5949C26.211 7.3577 24.6667 6.61538 22.865 6.57414C21.1492 6.5329 19.3904 6.57414 17.6746 6.57414V6.86282C17.9319 6.86282 18.1893 6.90406 18.4038 6.90406C19.7765 6.90406 21.1063 6.90406 22.479 6.90406C25.6104 6.9453 28.3558 9.04854 29.0421 11.8941C30.0717 16.1006 26.8544 19.8947 22.1787 19.9359C20.4199 19.9359 18.7041 19.9359 16.9453 19.9359V20.2246H22.2645C23.8088 20.2246 25.2243 19.8122 26.4683 18.9874C26.8544 18.74 27.1976 18.4513 27.7123 18.0389C26.2968 20.0184 24.3235 21.0082 22.0071 21.0082H16.9882V21.3381H22.3932C24.2806 21.3381 25.9965 20.802 27.455 19.7297C27.6266 19.606 27.7981 19.4823 28.0126 19.3586C26.5541 21.0907 24.6667 22.0804 22.3503 22.0804C20.5915 22.0804 18.7899 22.0804 17.0311 22.0804V22.4103C18.9615 22.4103 20.8489 22.4103 22.7792 22.3691C24.7096 22.3691 26.5112 21.7093 28.0984 20.637C28.27 20.5133 28.4845 20.3896 28.6561 20.2659C26.9831 22.1217 24.9241 23.1527 22.3074 23.1939C20.5486 23.1939 18.7899 23.1939 17.0311 23.1939V23.5238C18.9615 23.5238 20.8918 23.5238 22.865 23.4826C23.7659 23.4826 24.7525 23.3176 25.5675 23.0289C26.8544 22.5753 28.0555 21.9567 29.2137 21.4206C27.8839 22.7403 26.1681 23.8125 24.0661 24.0599C22.2216 24.2662 20.3341 24.1837 18.4896 24.2249C18.2322 24.2249 17.9748 24.2662 17.7174 24.3074L17.7603 24.5136C22.0071 24.5961 26.2968 25.0085 29.943 22.2041C28.6132 23.6063 27.026 24.6373 25.1386 24.9672C23.294 25.2559 21.4066 25.2147 19.562 25.3384C19.3046 25.3384 19.0472 25.3796 18.7899 25.4209C18.7899 25.4621 18.7899 25.5446 18.7899 25.6271C20.5486 25.6271 22.3074 25.7096 24.0232 25.6271C26.4683 25.4621 28.6132 24.5136 30.5864 23.1527C29.3853 24.3074 28.0555 25.2147 26.5112 25.792C31.6159 25.0085 35.5195 20.7607 35.5195 15.6057V11.0693C35.3908 6.16174 31.7875 2.03772 26.9402 1.04796Z" fill="url(#paint0_linear_24527_1355)"/>
    <path d="M0 25.957V0.841797H7.29241V10.4095L15.3141 0.841797H23.5502L13.8985 12.1004L24.1937 25.957H15.8717L9.30855 16.7192L7.29241 18.6988V25.957H0Z" fill="#025EA1"/>
    </g>
    <defs>
    <linearGradient id="paint0_linear_24527_1355" x1="25.7118" y1="13.403" x2="19.6405" y2="13.403" gradientUnits="userSpaceOnUse">
    <stop stop-color="#9ACAED"/>
    <stop offset="1" stop-color="#1A71AF" stop-opacity="0.99"/>
    </linearGradient>
    <clipPath id="clip0_24527_1355">
    <rect width="35.3897" height="25.1152" fill="white" transform="translate(0 0.841797)"/>
    </clipPath>
    </defs>
    </svg>
    