<svg width="211" height="127" viewBox="0 0 211 127" fill="none" xmlns="http://www.w3.org/2000/svg">
    <path d="M12.3385 117.18C11.7545 117.18 11.2225 117.084 10.7425 116.892C10.2625 116.7 9.85047 116.42 9.50647 116.052C9.16247 115.684 8.89447 115.232 8.70247 114.696C8.51847 114.152 8.42647 113.532 8.42647 112.836C8.42647 112.14 8.53047 111.524 8.73847 110.988C8.95447 110.444 9.24247 109.988 9.60247 109.62C9.96247 109.252 10.3825 108.972 10.8625 108.78C11.3425 108.588 11.8545 108.492 12.3985 108.492C12.7425 108.492 13.0505 108.516 13.3225 108.564C13.6025 108.612 13.8425 108.668 14.0425 108.732C14.2505 108.796 14.4185 108.86 14.5465 108.924C14.6745 108.988 14.7625 109.036 14.8105 109.068L14.4745 110.028C14.4025 109.98 14.2985 109.928 14.1625 109.872C14.0265 109.816 13.8705 109.76 13.6945 109.704C13.5265 109.648 13.3385 109.604 13.1305 109.572C12.9305 109.532 12.7265 109.512 12.5185 109.512C12.0785 109.512 11.6825 109.588 11.3305 109.74C10.9785 109.892 10.6785 110.112 10.4305 110.4C10.1825 110.688 9.99047 111.04 9.85447 111.456C9.72647 111.864 9.66247 112.324 9.66247 112.836C9.66247 113.332 9.71847 113.784 9.83047 114.192C9.95047 114.6 10.1265 114.952 10.3585 115.248C10.5905 115.536 10.8785 115.76 11.2225 115.92C11.5745 116.08 11.9825 116.16 12.4465 116.16C12.9825 116.16 13.4265 116.104 13.7785 115.992C14.1305 115.88 14.3945 115.78 14.5705 115.692L14.8705 116.652C14.8145 116.692 14.7145 116.744 14.5705 116.808C14.4265 116.864 14.2465 116.92 14.0305 116.976C13.8145 117.032 13.5625 117.08 13.2745 117.12C12.9865 117.16 12.6745 117.18 12.3385 117.18ZM21.3759 110.76V117H20.2959V112.248C20.0559 112.552 19.7919 112.908 19.5039 113.316C19.2159 113.724 18.9279 114.148 18.6399 114.588C18.3519 115.02 18.0759 115.448 17.8119 115.872C17.5479 116.296 17.3199 116.672 17.1279 117H16.1319V110.76H17.2119V115.248C17.4199 114.904 17.6559 114.528 17.9199 114.12C18.1839 113.704 18.4559 113.296 18.7359 112.896C19.0239 112.488 19.3079 112.1 19.5879 111.732C19.8759 111.356 20.1439 111.032 20.3919 110.76H21.3759ZM26.004 117.144C25.5 117.144 25.056 117.064 24.672 116.904C24.296 116.744 23.976 116.52 23.712 116.232C23.456 115.944 23.264 115.604 23.136 115.212C23.008 114.812 22.944 114.372 22.944 113.892C22.944 113.412 23.012 112.972 23.148 112.572C23.292 112.172 23.492 111.828 23.748 111.54C24.004 111.244 24.316 111.016 24.684 110.856C25.06 110.688 25.476 110.604 25.932 110.604C26.212 110.604 26.492 110.628 26.772 110.676C27.052 110.724 27.32 110.8 27.576 110.904L27.324 111.852C27.156 111.772 26.96 111.708 26.736 111.66C26.52 111.612 26.288 111.588 26.04 111.588C25.416 111.588 24.936 111.784 24.6 112.176C24.272 112.568 24.108 113.14 24.108 113.892C24.108 114.228 24.144 114.536 24.216 114.816C24.296 115.096 24.416 115.336 24.576 115.536C24.744 115.736 24.956 115.892 25.212 116.004C25.468 116.108 25.78 116.16 26.148 116.16C26.444 116.16 26.712 116.132 26.952 116.076C27.192 116.02 27.38 115.96 27.516 115.896L27.672 116.832C27.608 116.872 27.516 116.912 27.396 116.952C27.276 116.984 27.14 117.012 26.988 117.036C26.836 117.068 26.672 117.092 26.496 117.108C26.328 117.132 26.164 117.144 26.004 117.144ZM33.4499 110.76V111.696H31.4219V117H30.3059V111.696H28.2779V110.76H33.4499ZM34.2526 113.892C34.2526 113.34 34.3326 112.86 34.4926 112.452C34.6526 112.036 34.8646 111.692 35.1286 111.42C35.3926 111.148 35.6966 110.944 36.0406 110.808C36.3846 110.672 36.7366 110.604 37.0966 110.604C37.9366 110.604 38.5806 110.868 39.0286 111.396C39.4766 111.916 39.7006 112.712 39.7006 113.784C39.7006 113.832 39.7006 113.896 39.7006 113.976C39.7006 114.048 39.6966 114.116 39.6886 114.18H35.4166C35.4646 114.828 35.6526 115.32 35.9806 115.656C36.3086 115.992 36.8206 116.16 37.5166 116.16C37.9086 116.16 38.2366 116.128 38.5006 116.064C38.7726 115.992 38.9766 115.924 39.1126 115.86L39.2686 116.796C39.1326 116.868 38.8926 116.944 38.5486 117.024C38.2126 117.104 37.8286 117.144 37.3966 117.144C36.8526 117.144 36.3806 117.064 35.9806 116.904C35.5886 116.736 35.2646 116.508 35.0086 116.22C34.7526 115.932 34.5606 115.592 34.4326 115.2C34.3126 114.8 34.2526 114.364 34.2526 113.892ZM38.5366 113.28C38.5446 112.776 38.4166 112.364 38.1526 112.044C37.8966 111.716 37.5406 111.552 37.0846 111.552C36.8286 111.552 36.6006 111.604 36.4006 111.708C36.2086 111.804 36.0446 111.932 35.9086 112.092C35.7726 112.252 35.6646 112.436 35.5846 112.644C35.5126 112.852 35.4646 113.064 35.4406 113.28H38.5366ZM42.4918 112.404C42.4118 113.196 42.3518 113.988 42.3118 114.78C42.2718 115.564 42.2398 116.304 42.2158 117H41.1478C41.1638 116.512 41.1878 116.004 41.2198 115.476C41.2518 114.94 41.2878 114.404 41.3278 113.868C41.3678 113.324 41.4118 112.792 41.4598 112.272C41.5078 111.744 41.5598 111.24 41.6158 110.76H42.6358C42.8918 111.176 43.1918 111.748 43.5358 112.476C43.8798 113.196 44.2758 114.028 44.7238 114.972C45.1718 114.028 45.5678 113.196 45.9118 112.476C46.2558 111.748 46.5558 111.176 46.8118 110.76H47.8438C47.8998 111.24 47.9518 111.744 47.9998 112.272C48.0478 112.792 48.0918 113.324 48.1318 113.868C48.1718 114.404 48.2078 114.94 48.2398 115.476C48.2718 116.004 48.2958 116.512 48.3118 117H47.2078C47.1838 116.304 47.1518 115.564 47.1118 114.78C47.0718 113.988 47.0118 113.196 46.9318 112.404C46.8038 112.652 46.6558 112.952 46.4878 113.304C46.3198 113.648 46.1518 114 45.9838 114.36C45.8238 114.72 45.6718 115.064 45.5278 115.392C45.3838 115.72 45.2718 115.98 45.1918 116.172H44.2558C44.1678 115.972 44.0478 115.708 43.8958 115.38C43.7518 115.052 43.5958 114.708 43.4277 114.348C43.2678 113.98 43.1038 113.624 42.9358 113.28C42.7678 112.928 42.6198 112.636 42.4918 112.404ZM52.1931 116.196C52.4571 116.196 52.6891 116.192 52.8891 116.184C53.0971 116.168 53.2691 116.144 53.4051 116.112V114.252C53.3251 114.212 53.1931 114.18 53.0091 114.156C52.8331 114.124 52.6171 114.108 52.3611 114.108C52.1931 114.108 52.0131 114.12 51.8211 114.144C51.6371 114.168 51.4651 114.22 51.3051 114.3C51.1531 114.372 51.0251 114.476 50.9211 114.612C50.8171 114.74 50.7651 114.912 50.7651 115.128C50.7651 115.528 50.8931 115.808 51.1491 115.968C51.4051 116.12 51.7531 116.196 52.1931 116.196ZM52.0971 110.604C52.5451 110.604 52.9211 110.664 53.2251 110.784C53.5371 110.896 53.7851 111.06 53.9691 111.276C54.1611 111.484 54.2971 111.736 54.3771 112.032C54.4571 112.32 54.4971 112.64 54.4971 112.992V116.892C54.4011 116.908 54.2651 116.932 54.0891 116.964C53.9211 116.988 53.7291 117.012 53.5131 117.036C53.2971 117.06 53.0611 117.08 52.8051 117.096C52.5571 117.12 52.3091 117.132 52.0611 117.132C51.7091 117.132 51.3851 117.096 51.0891 117.024C50.7931 116.952 50.5371 116.84 50.3211 116.688C50.1051 116.528 49.9371 116.32 49.8171 116.064C49.6971 115.808 49.6371 115.5 49.6371 115.14C49.6371 114.796 49.7051 114.5 49.8411 114.252C49.9851 114.004 50.1771 113.804 50.4171 113.652C50.6571 113.5 50.9371 113.388 51.2571 113.316C51.5771 113.244 51.9131 113.208 52.2651 113.208C52.3771 113.208 52.4931 113.216 52.6131 113.232C52.7331 113.24 52.8451 113.256 52.9491 113.28C53.0611 113.296 53.1571 113.312 53.2371 113.328C53.3171 113.344 53.3731 113.356 53.4051 113.364V113.052C53.4051 112.868 53.3851 112.688 53.3451 112.512C53.3051 112.328 53.2331 112.168 53.1291 112.032C53.0251 111.888 52.8811 111.776 52.6971 111.696C52.5211 111.608 52.2891 111.564 52.0011 111.564C51.6331 111.564 51.3091 111.592 51.0291 111.648C50.7571 111.696 50.5531 111.748 50.4171 111.804L50.2851 110.88C50.4291 110.816 50.6691 110.756 51.0051 110.7C51.3411 110.636 51.7051 110.604 52.0971 110.604ZM64.144 117H63.028V111.696H60.244V117H59.128V110.76H64.144V117ZM70.3975 113.892C70.3975 113.164 70.2175 112.604 69.8575 112.212C69.4975 111.82 69.0175 111.624 68.4175 111.624C68.0815 111.624 67.8175 111.636 67.6255 111.66C67.4415 111.684 67.2935 111.712 67.1815 111.744V115.68C67.3175 115.792 67.5135 115.9 67.7695 116.004C68.0255 116.108 68.3055 116.16 68.6095 116.16C68.9295 116.16 69.2015 116.104 69.4255 115.992C69.6575 115.872 69.8455 115.712 69.9895 115.512C70.1335 115.304 70.2375 115.064 70.3015 114.792C70.3655 114.512 70.3975 114.212 70.3975 113.892ZM71.5615 113.892C71.5615 114.364 71.4975 114.8 71.3695 115.2C71.2495 115.6 71.0695 115.944 70.8295 116.232C70.5895 116.52 70.2935 116.744 69.9415 116.904C69.5975 117.064 69.2015 117.144 68.7535 117.144C68.3935 117.144 68.0735 117.096 67.7935 117C67.5215 116.904 67.3175 116.812 67.1815 116.724V119.22H66.0655V110.952C66.3295 110.888 66.6575 110.82 67.0495 110.748C67.4495 110.668 67.9095 110.628 68.4295 110.628C68.9095 110.628 69.3415 110.704 69.7255 110.856C70.1095 111.008 70.4375 111.224 70.7095 111.504C70.9815 111.784 71.1895 112.128 71.3335 112.536C71.4855 112.936 71.5615 113.388 71.5615 113.892ZM72.7839 113.892C72.7839 113.34 72.8639 112.86 73.0239 112.452C73.1839 112.036 73.3959 111.692 73.6599 111.42C73.9239 111.148 74.2279 110.944 74.5719 110.808C74.9159 110.672 75.2679 110.604 75.6279 110.604C76.4679 110.604 77.1119 110.868 77.5599 111.396C78.0079 111.916 78.2319 112.712 78.2319 113.784C78.2319 113.832 78.2319 113.896 78.2319 113.976C78.2319 114.048 78.2279 114.116 78.2199 114.18H73.9479C73.9959 114.828 74.1839 115.32 74.5119 115.656C74.8399 115.992 75.3519 116.16 76.0479 116.16C76.4399 116.16 76.7679 116.128 77.0319 116.064C77.3039 115.992 77.5079 115.924 77.6439 115.86L77.7999 116.796C77.6639 116.868 77.4239 116.944 77.0799 117.024C76.7439 117.104 76.3599 117.144 75.9279 117.144C75.3839 117.144 74.9119 117.064 74.5119 116.904C74.1199 116.736 73.7959 116.508 73.5399 116.22C73.2839 115.932 73.0919 115.592 72.9639 115.2C72.8439 114.8 72.7839 114.364 72.7839 113.892ZM77.0679 113.28C77.0759 112.776 76.9479 112.364 76.6839 112.044C76.4279 111.716 76.0719 111.552 75.6159 111.552C75.3599 111.552 75.1319 111.604 74.9319 111.708C74.7399 111.804 74.5759 111.932 74.4399 112.092C74.3039 112.252 74.1959 112.436 74.1159 112.644C74.0439 112.852 73.9959 113.064 73.9719 113.28H77.0679ZM79.067 116.088H79.739C80.003 115.704 80.211 115.308 80.363 114.9C80.523 114.492 80.643 114.072 80.723 113.64C80.803 113.2 80.855 112.744 80.879 112.272C80.903 111.792 80.919 111.288 80.927 110.76H85.019V116.088H85.859V118.74H84.803V117H80.123V118.74H79.067V116.088ZM83.903 116.088V111.696H81.947C81.939 112.072 81.919 112.452 81.887 112.836C81.855 113.212 81.803 113.588 81.731 113.964C81.659 114.332 81.555 114.696 81.419 115.056C81.291 115.408 81.127 115.752 80.927 116.088H83.903ZM92.3095 110.76V117H91.2295V112.248C90.9895 112.552 90.7255 112.908 90.4375 113.316C90.1495 113.724 89.8615 114.148 89.5735 114.588C89.2855 115.02 89.0095 115.448 88.7455 115.872C88.4815 116.296 88.2535 116.672 88.0615 117H87.0655V110.76H88.1455V115.248C88.3535 114.904 88.5895 114.528 88.8535 114.12C89.1175 113.704 89.3895 113.296 89.6695 112.896C89.9575 112.488 90.2415 112.1 90.5215 111.732C90.8095 111.356 91.0775 111.032 91.3255 110.76H92.3095ZM96.5056 113.604C96.7536 113.78 97.0216 114.004 97.3096 114.276C97.5976 114.54 97.8776 114.828 98.1496 115.14C98.4296 115.452 98.6896 115.772 98.9296 116.1C99.1696 116.42 99.3736 116.72 99.5416 117H98.2216C98.0456 116.728 97.8376 116.452 97.5976 116.172C97.3656 115.884 97.1216 115.608 96.8656 115.344C96.6096 115.08 96.3496 114.836 96.0856 114.612C95.8216 114.388 95.5736 114.2 95.3416 114.048V117H94.2256V110.76H95.3416V113.436C95.5336 113.252 95.7536 113.04 96.0016 112.8C96.2496 112.552 96.4976 112.304 96.7456 112.056C97.0016 111.8 97.2376 111.56 97.4536 111.336C97.6696 111.104 97.8456 110.912 97.9816 110.76H99.2776C99.1016 110.952 98.8936 111.172 98.6536 111.42C98.4216 111.66 98.1776 111.908 97.9216 112.164C97.6736 112.42 97.4256 112.676 97.1776 112.932C96.9296 113.18 96.7056 113.404 96.5056 113.604ZM105.075 110.76V111.696H103.047V117H101.931V111.696H99.9029V110.76H105.075ZM111.47 110.76V117H110.39V112.248C110.15 112.552 109.886 112.908 109.598 113.316C109.31 113.724 109.022 114.148 108.734 114.588C108.446 115.02 108.17 115.448 107.906 115.872C107.642 116.296 107.414 116.672 107.222 117H106.226V110.76H107.306V115.248C107.514 114.904 107.75 114.528 108.014 114.12C108.278 113.704 108.55 113.296 108.83 112.896C109.118 112.488 109.402 112.1 109.682 111.732C109.97 111.356 110.238 111.032 110.486 110.76H111.47ZM114.478 116.16C114.526 116.168 114.594 116.176 114.682 116.184C114.77 116.192 114.87 116.2 114.982 116.208C115.094 116.208 115.21 116.212 115.33 116.22C115.458 116.22 115.578 116.22 115.69 116.22C115.922 116.22 116.142 116.204 116.35 116.172C116.566 116.14 116.75 116.084 116.902 116.004C117.062 115.924 117.186 115.82 117.274 115.692C117.37 115.556 117.418 115.384 117.418 115.176C117.418 114.976 117.374 114.812 117.286 114.684C117.206 114.548 117.094 114.44 116.95 114.36C116.806 114.28 116.634 114.224 116.434 114.192C116.242 114.16 116.034 114.144 115.81 114.144H114.478V116.16ZM115.666 113.316C115.882 113.316 116.078 113.304 116.254 113.28C116.438 113.248 116.594 113.196 116.722 113.124C116.858 113.052 116.962 112.956 117.034 112.836C117.114 112.716 117.154 112.564 117.154 112.38C117.154 112.188 117.106 112.036 117.01 111.924C116.914 111.812 116.786 111.728 116.626 111.672C116.474 111.608 116.298 111.568 116.098 111.552C115.906 111.528 115.71 111.516 115.51 111.516C115.326 111.516 115.138 111.52 114.946 111.528C114.762 111.536 114.606 111.544 114.478 111.552V113.316H115.666ZM115.642 117.108C115.17 117.108 114.734 117.084 114.334 117.036C113.934 116.996 113.618 116.948 113.386 116.892V110.82C113.618 110.764 113.934 110.716 114.334 110.676C114.734 110.628 115.17 110.604 115.642 110.604C115.97 110.604 116.29 110.632 116.602 110.688C116.914 110.744 117.19 110.84 117.43 110.976C117.67 111.104 117.862 111.284 118.006 111.516C118.158 111.74 118.234 112.02 118.234 112.356C118.234 112.66 118.158 112.92 118.006 113.136C117.854 113.352 117.65 113.52 117.394 113.64C117.738 113.76 118.01 113.94 118.21 114.18C118.418 114.412 118.522 114.74 118.522 115.164C118.522 115.54 118.446 115.852 118.294 116.1C118.15 116.348 117.946 116.548 117.682 116.7C117.426 116.852 117.122 116.956 116.77 117.012C116.418 117.076 116.042 117.108 115.642 117.108ZM125.072 117H123.956V114.24H121.076V117H119.96V110.76H121.076V113.304H123.956V110.76H125.072V117ZM132.499 113.88C132.499 114.376 132.427 114.824 132.283 115.224C132.139 115.624 131.935 115.968 131.671 116.256C131.415 116.544 131.107 116.768 130.747 116.928C130.387 117.08 129.995 117.156 129.571 117.156C129.147 117.156 128.755 117.08 128.395 116.928C128.035 116.768 127.723 116.544 127.459 116.256C127.203 115.968 127.003 115.624 126.859 115.224C126.715 114.824 126.643 114.376 126.643 113.88C126.643 113.392 126.715 112.948 126.859 112.548C127.003 112.14 127.203 111.792 127.459 111.504C127.723 111.216 128.035 110.996 128.395 110.844C128.755 110.684 129.147 110.604 129.571 110.604C129.995 110.604 130.387 110.684 130.747 110.844C131.107 110.996 131.415 111.216 131.671 111.504C131.935 111.792 132.139 112.14 132.283 112.548C132.427 112.948 132.499 113.392 132.499 113.88ZM131.335 113.88C131.335 113.176 131.175 112.62 130.855 112.212C130.543 111.796 130.115 111.588 129.571 111.588C129.027 111.588 128.595 111.796 128.275 112.212C127.963 112.62 127.807 113.176 127.807 113.88C127.807 114.584 127.963 115.144 128.275 115.56C128.595 115.968 129.027 116.172 129.571 116.172C130.115 116.172 130.543 115.968 130.855 115.56C131.175 115.144 131.335 114.584 131.335 113.88ZM139.313 110.76V117H138.233V112.248C137.993 112.552 137.729 112.908 137.441 113.316C137.153 113.724 136.865 114.148 136.577 114.588C136.289 115.02 136.013 115.448 135.749 115.872C135.485 116.296 135.257 116.672 135.065 117H134.069V110.76H135.149V115.248C135.357 114.904 135.593 114.528 135.857 114.12C136.121 113.704 136.393 113.296 136.673 112.896C136.961 112.488 137.245 112.1 137.525 111.732C137.813 111.356 138.081 111.032 138.329 110.76H139.313ZM136.697 109.752C136.193 109.752 135.781 109.624 135.461 109.368C135.149 109.112 134.961 108.756 134.897 108.3L135.749 108.072C135.813 108.328 135.921 108.536 136.073 108.696C136.225 108.856 136.433 108.936 136.697 108.936C136.961 108.936 137.169 108.856 137.321 108.696C137.473 108.536 137.581 108.328 137.645 108.072L138.485 108.3C138.421 108.756 138.233 109.112 137.921 109.368C137.609 109.624 137.201 109.752 136.697 109.752ZM146.119 116.196C146.383 116.196 146.615 116.192 146.815 116.184C147.023 116.168 147.195 116.144 147.331 116.112V114.252C147.251 114.212 147.119 114.18 146.935 114.156C146.759 114.124 146.543 114.108 146.287 114.108C146.119 114.108 145.939 114.12 145.747 114.144C145.563 114.168 145.391 114.22 145.231 114.3C145.079 114.372 144.951 114.476 144.847 114.612C144.743 114.74 144.691 114.912 144.691 115.128C144.691 115.528 144.819 115.808 145.075 115.968C145.331 116.12 145.679 116.196 146.119 116.196ZM146.023 110.604C146.471 110.604 146.847 110.664 147.151 110.784C147.463 110.896 147.711 111.06 147.895 111.276C148.087 111.484 148.223 111.736 148.303 112.032C148.383 112.32 148.423 112.64 148.423 112.992V116.892C148.327 116.908 148.191 116.932 148.015 116.964C147.847 116.988 147.655 117.012 147.439 117.036C147.223 117.06 146.987 117.08 146.731 117.096C146.483 117.12 146.235 117.132 145.987 117.132C145.635 117.132 145.311 117.096 145.015 117.024C144.719 116.952 144.463 116.84 144.247 116.688C144.031 116.528 143.863 116.32 143.743 116.064C143.623 115.808 143.563 115.5 143.563 115.14C143.563 114.796 143.631 114.5 143.767 114.252C143.911 114.004 144.103 113.804 144.343 113.652C144.583 113.5 144.863 113.388 145.183 113.316C145.503 113.244 145.839 113.208 146.191 113.208C146.303 113.208 146.419 113.216 146.539 113.232C146.659 113.24 146.771 113.256 146.875 113.28C146.987 113.296 147.083 113.312 147.163 113.328C147.243 113.344 147.299 113.356 147.331 113.364V113.052C147.331 112.868 147.311 112.688 147.271 112.512C147.231 112.328 147.159 112.168 147.055 112.032C146.951 111.888 146.807 111.776 146.623 111.696C146.447 111.608 146.215 111.564 145.927 111.564C145.559 111.564 145.235 111.592 144.955 111.648C144.683 111.696 144.479 111.748 144.343 111.804L144.211 110.88C144.355 110.816 144.595 110.756 144.931 110.7C145.267 110.636 145.631 110.604 146.023 110.604ZM155.388 117H154.272V114.24H151.392V117H150.276V110.76H151.392V113.304H154.272V110.76H155.388V117ZM159.42 116.196C159.684 116.196 159.916 116.192 160.116 116.184C160.324 116.168 160.496 116.144 160.632 116.112V114.252C160.552 114.212 160.42 114.18 160.236 114.156C160.06 114.124 159.844 114.108 159.588 114.108C159.42 114.108 159.24 114.12 159.048 114.144C158.864 114.168 158.692 114.22 158.532 114.3C158.38 114.372 158.252 114.476 158.148 114.612C158.044 114.74 157.992 114.912 157.992 115.128C157.992 115.528 158.12 115.808 158.376 115.968C158.632 116.12 158.98 116.196 159.42 116.196ZM159.324 110.604C159.772 110.604 160.148 110.664 160.452 110.784C160.764 110.896 161.012 111.06 161.196 111.276C161.388 111.484 161.524 111.736 161.604 112.032C161.684 112.32 161.724 112.64 161.724 112.992V116.892C161.628 116.908 161.492 116.932 161.316 116.964C161.148 116.988 160.956 117.012 160.74 117.036C160.524 117.06 160.288 117.08 160.032 117.096C159.784 117.12 159.536 117.132 159.288 117.132C158.936 117.132 158.612 117.096 158.316 117.024C158.02 116.952 157.764 116.84 157.548 116.688C157.332 116.528 157.164 116.32 157.044 116.064C156.924 115.808 156.864 115.5 156.864 115.14C156.864 114.796 156.932 114.5 157.068 114.252C157.212 114.004 157.404 113.804 157.644 113.652C157.884 113.5 158.164 113.388 158.484 113.316C158.804 113.244 159.14 113.208 159.492 113.208C159.604 113.208 159.72 113.216 159.84 113.232C159.96 113.24 160.072 113.256 160.176 113.28C160.288 113.296 160.384 113.312 160.464 113.328C160.544 113.344 160.6 113.356 160.632 113.364V113.052C160.632 112.868 160.612 112.688 160.572 112.512C160.532 112.328 160.46 112.168 160.356 112.032C160.252 111.888 160.108 111.776 159.924 111.696C159.748 111.608 159.516 111.564 159.228 111.564C158.86 111.564 158.536 111.592 158.256 111.648C157.984 111.696 157.78 111.748 157.644 111.804L157.512 110.88C157.656 110.816 157.896 110.756 158.232 110.7C158.568 110.636 158.932 110.604 159.324 110.604ZM165.749 111.696C165.749 111.96 165.741 112.244 165.725 112.548C165.717 112.844 165.697 113.144 165.665 113.448C165.633 113.744 165.589 114.04 165.533 114.336C165.477 114.624 165.405 114.896 165.317 115.152C165.229 115.408 165.117 115.648 164.981 115.872C164.853 116.096 164.693 116.296 164.501 116.472C164.309 116.64 164.085 116.784 163.829 116.904C163.573 117.016 163.273 117.088 162.929 117.12L162.773 116.184C163.165 116.104 163.473 115.956 163.697 115.74C163.929 115.524 164.113 115.26 164.249 114.948C164.369 114.676 164.457 114.368 164.513 114.024C164.569 113.68 164.609 113.324 164.633 112.956C164.657 112.58 164.669 112.204 164.669 111.828C164.677 111.452 164.681 111.096 164.681 110.76H168.833V117H167.717V111.696H165.749ZM175.993 110.76V117H174.913V112.248C174.673 112.552 174.409 112.908 174.121 113.316C173.833 113.724 173.545 114.148 173.257 114.588C172.969 115.02 172.693 115.448 172.429 115.872C172.165 116.296 171.937 116.672 171.745 117H170.749V110.76H171.829V115.248C172.037 114.904 172.273 114.528 172.537 114.12C172.801 113.704 173.073 113.296 173.353 112.896C173.641 112.488 173.925 112.1 174.205 111.732C174.493 111.356 174.761 111.032 175.009 110.76H175.993ZM182.313 110.76V111.696H180.285V117H179.169V111.696H177.141V110.76H182.313ZM188.708 110.76V117H187.628V112.248C187.388 112.552 187.124 112.908 186.836 113.316C186.548 113.724 186.26 114.148 185.972 114.588C185.684 115.02 185.408 115.448 185.144 115.872C184.88 116.296 184.652 116.672 184.46 117H183.464V110.76H184.544V115.248C184.752 114.904 184.988 114.528 185.252 114.12C185.516 113.704 185.788 113.296 186.068 112.896C186.356 112.488 186.64 112.1 186.92 111.732C187.208 111.356 187.476 111.032 187.724 110.76H188.708ZM192.904 113.604C193.152 113.78 193.42 114.004 193.708 114.276C193.996 114.54 194.276 114.828 194.548 115.14C194.828 115.452 195.088 115.772 195.328 116.1C195.568 116.42 195.772 116.72 195.94 117H194.62C194.444 116.728 194.236 116.452 193.996 116.172C193.764 115.884 193.52 115.608 193.264 115.344C193.008 115.08 192.748 114.836 192.484 114.612C192.22 114.388 191.972 114.2 191.74 114.048V117H190.624V110.76H191.74V113.436C191.932 113.252 192.152 113.04 192.4 112.8C192.648 112.552 192.896 112.304 193.144 112.056C193.4 111.8 193.636 111.56 193.852 111.336C194.068 111.104 194.244 110.912 194.38 110.76H195.676C195.5 110.952 195.292 111.172 195.052 111.42C194.82 111.66 194.576 111.908 194.32 112.164C194.072 112.42 193.824 112.676 193.576 112.932C193.328 113.18 193.104 113.404 192.904 113.604ZM202.313 110.76V117H201.233V112.248C200.993 112.552 200.729 112.908 200.441 113.316C200.153 113.724 199.865 114.148 199.577 114.588C199.289 115.02 199.013 115.448 198.749 115.872C198.485 116.296 198.257 116.672 198.065 117H197.069V110.76H198.149V115.248C198.357 114.904 198.593 114.528 198.857 114.12C199.121 113.704 199.393 113.296 199.673 112.896C199.961 112.488 200.245 112.1 200.525 111.732C200.813 111.356 201.081 111.032 201.329 110.76H202.313Z" fill="white"/>
    <path d="M40.0456 98C39.7656 97.5467 39.4323 97.06 39.0456 96.54C38.6723 96.0067 38.259 95.48 37.8056 94.96C37.3656 94.4267 36.9056 93.92 36.4256 93.44C35.9456 92.9467 35.4656 92.5133 34.9856 92.14V98H31.8656V84.14H34.9856V89.38C35.799 88.5267 36.6123 87.64 37.4256 86.72C38.2523 85.7867 39.019 84.9267 39.7256 84.14H43.4256C42.479 85.26 41.5256 86.34 40.5656 87.38C39.619 88.42 38.619 89.4667 37.5656 90.52C38.6723 91.44 39.739 92.5333 40.7656 93.8C41.8056 95.0667 42.799 96.4667 43.7456 98H40.0456ZM47.2795 98C46.5995 96.6667 45.9062 95.1067 45.1995 93.32C44.5062 91.5333 43.8462 89.5867 43.2195 87.48H46.3795C46.5129 88 46.6662 88.5667 46.8395 89.18C47.0262 89.78 47.2129 90.3933 47.3995 91.02C47.5995 91.6333 47.7929 92.2333 47.9795 92.82C48.1795 93.4067 48.3729 93.94 48.5595 94.42C48.7329 93.94 48.9195 93.4067 49.1195 92.82C49.3195 92.2333 49.5129 91.6333 49.6995 91.02C49.8995 90.3933 50.0862 89.78 50.2595 89.18C50.4462 88.5667 50.6062 88 50.7395 87.48H53.8195C53.1929 89.5867 52.5262 91.5333 51.8195 93.32C51.1262 95.1067 50.4395 96.6667 49.7595 98H47.2795ZM59.2403 95.92C59.5336 95.92 59.8136 95.9133 60.0803 95.9C60.347 95.8867 60.5603 95.8667 60.7203 95.84V93.58C60.6003 93.5533 60.4203 93.5267 60.1803 93.5C59.9403 93.4733 59.7203 93.46 59.5203 93.46C59.2403 93.46 58.9736 93.48 58.7203 93.52C58.4803 93.5467 58.267 93.6067 58.0803 93.7C57.8936 93.7933 57.747 93.92 57.6403 94.08C57.5336 94.24 57.4803 94.44 57.4803 94.68C57.4803 95.1467 57.6336 95.4733 57.9403 95.66C58.2603 95.8333 58.6936 95.92 59.2403 95.92ZM59.0003 87.2C59.8803 87.2 60.6136 87.3 61.2003 87.5C61.787 87.7 62.2536 87.9867 62.6003 88.36C62.9603 88.7333 63.2136 89.1867 63.3603 89.72C63.507 90.2533 63.5803 90.8467 63.5803 91.5V97.7C63.1536 97.7933 62.5603 97.9 61.8003 98.02C61.0403 98.1533 60.1203 98.22 59.0403 98.22C58.3603 98.22 57.7403 98.16 57.1803 98.04C56.6336 97.92 56.1603 97.7267 55.7603 97.46C55.3603 97.18 55.0536 96.82 54.8403 96.38C54.627 95.94 54.5203 95.4 54.5203 94.76C54.5203 94.1467 54.6403 93.6267 54.8803 93.2C55.1336 92.7733 55.467 92.4333 55.8803 92.18C56.2936 91.9267 56.767 91.7467 57.3003 91.64C57.8336 91.52 58.387 91.46 58.9603 91.46C59.347 91.46 59.687 91.48 59.9803 91.52C60.287 91.5467 60.5336 91.5867 60.7203 91.64V91.36C60.7203 90.8533 60.567 90.4467 60.2603 90.14C59.9536 89.8333 59.4203 89.68 58.6603 89.68C58.1536 89.68 57.6536 89.72 57.1603 89.8C56.667 89.8667 56.2403 89.9667 55.8803 90.1L55.5003 87.7C55.6736 87.6467 55.887 87.5933 56.1403 87.54C56.407 87.4733 56.6936 87.42 57.0003 87.38C57.307 87.3267 57.627 87.2867 57.9603 87.26C58.307 87.22 58.6536 87.2 59.0003 87.2ZM66.275 87.84C66.7817 87.6933 67.435 87.56 68.235 87.44C69.035 87.3067 69.875 87.24 70.755 87.24C71.6483 87.24 72.3883 87.36 72.975 87.6C73.575 87.8267 74.0483 88.1533 74.395 88.58C74.7417 89.0067 74.9883 89.5133 75.135 90.1C75.2817 90.6867 75.355 91.34 75.355 92.06V98H72.375V92.42C72.375 91.46 72.2483 90.78 71.995 90.38C71.7417 89.98 71.2683 89.78 70.575 89.78C70.3617 89.78 70.135 89.7933 69.895 89.82C69.655 89.8333 69.4417 89.8533 69.255 89.88V98H66.275V87.84ZM77.9523 84.86L80.9323 84.38V87.48H84.5123V89.96H80.9323V93.66C80.9323 94.2867 81.039 94.7867 81.2523 95.16C81.479 95.5333 81.9257 95.72 82.5923 95.72C82.9123 95.72 83.239 95.6933 83.5723 95.64C83.919 95.5733 84.2323 95.4867 84.5123 95.38L84.9323 97.7C84.5723 97.8467 84.1723 97.9733 83.7323 98.08C83.2923 98.1867 82.7523 98.24 82.1123 98.24C81.299 98.24 80.6257 98.1333 80.0923 97.92C79.559 97.6933 79.1323 97.3867 78.8123 97C78.4923 96.6 78.2657 96.12 78.1323 95.56C78.0123 95 77.9523 94.38 77.9523 93.7V84.86ZM90.2591 95.46C90.4057 95.4733 90.5724 95.4867 90.7591 95.5C90.9591 95.5 91.1924 95.5 91.4591 95.5C93.0191 95.5 94.1724 95.1067 94.9191 94.32C95.6791 93.5333 96.0591 92.4467 96.0591 91.06C96.0591 89.6067 95.6991 88.5067 94.9791 87.76C94.2591 87.0133 93.1191 86.64 91.5591 86.64C91.3457 86.64 91.1257 86.6467 90.8991 86.66C90.6724 86.66 90.4591 86.6733 90.2591 86.7V95.46ZM99.2791 91.06C99.2791 92.26 99.0924 93.3067 98.7191 94.2C98.3457 95.0933 97.8124 95.8333 97.1191 96.42C96.4391 97.0067 95.6057 97.4467 94.6191 97.74C93.6324 98.0333 92.5257 98.18 91.2991 98.18C90.7391 98.18 90.0857 98.1533 89.3391 98.1C88.5924 98.06 87.8591 97.9667 87.1391 97.82V84.32C87.8591 84.1867 88.6057 84.1 89.3791 84.06C90.1657 84.0067 90.8391 83.98 91.3991 83.98C92.5857 83.98 93.6591 84.1133 94.6191 84.38C95.5924 84.6467 96.4257 85.0667 97.1191 85.64C97.8124 86.2133 98.3457 86.9467 98.7191 87.84C99.0924 88.7333 99.2791 89.8067 99.2791 91.06ZM101.185 92.82C101.185 91.8867 101.325 91.0733 101.605 90.38C101.898 89.6733 102.278 89.0867 102.745 88.62C103.212 88.1533 103.745 87.8 104.345 87.56C104.958 87.32 105.585 87.2 106.225 87.2C107.718 87.2 108.898 87.66 109.765 88.58C110.632 89.4867 111.065 90.8267 111.065 92.6C111.065 92.7733 111.058 92.9667 111.045 93.18C111.032 93.38 111.018 93.56 111.005 93.72H104.245C104.312 94.3333 104.598 94.82 105.105 95.18C105.612 95.54 106.292 95.72 107.145 95.72C107.692 95.72 108.225 95.6733 108.745 95.58C109.278 95.4733 109.712 95.3467 110.045 95.2L110.445 97.62C110.285 97.7 110.072 97.78 109.805 97.86C109.538 97.94 109.238 98.0067 108.905 98.06C108.585 98.1267 108.238 98.18 107.865 98.22C107.492 98.26 107.118 98.28 106.745 98.28C105.798 98.28 104.972 98.14 104.265 97.86C103.572 97.58 102.992 97.2 102.525 96.72C102.072 96.2267 101.732 95.6467 101.505 94.98C101.292 94.3133 101.185 93.5933 101.185 92.82ZM108.185 91.68C108.172 91.4267 108.125 91.18 108.045 90.94C107.978 90.7 107.865 90.4867 107.705 90.3C107.558 90.1133 107.365 89.96 107.125 89.84C106.898 89.72 106.612 89.66 106.265 89.66C105.932 89.66 105.645 89.72 105.405 89.84C105.165 89.9467 104.965 90.0933 104.805 90.28C104.645 90.4667 104.518 90.6867 104.425 90.94C104.345 91.18 104.285 91.4267 104.245 91.68H108.185ZM113.265 84.86L116.245 84.38V87.48H119.825V89.96H116.245V93.66C116.245 94.2867 116.352 94.7867 116.565 95.16C116.792 95.5333 117.238 95.72 117.905 95.72C118.225 95.72 118.552 95.6933 118.885 95.64C119.232 95.5733 119.545 95.4867 119.825 95.38L120.245 97.7C119.885 97.8467 119.485 97.9733 119.045 98.08C118.605 98.1867 118.065 98.24 117.425 98.24C116.612 98.24 115.938 98.1333 115.405 97.92C114.872 97.6933 114.445 97.3867 114.125 97C113.805 96.6 113.578 96.12 113.445 95.56C113.325 95 113.265 94.38 113.265 93.7V84.86ZM121.361 92.82C121.361 91.8867 121.501 91.0733 121.781 90.38C122.074 89.6733 122.454 89.0867 122.921 88.62C123.388 88.1533 123.921 87.8 124.521 87.56C125.134 87.32 125.761 87.2 126.401 87.2C127.894 87.2 129.074 87.66 129.941 88.58C130.808 89.4867 131.241 90.8267 131.241 92.6C131.241 92.7733 131.234 92.9667 131.221 93.18C131.208 93.38 131.194 93.56 131.181 93.72H124.421C124.488 94.3333 124.774 94.82 125.281 95.18C125.788 95.54 126.468 95.72 127.321 95.72C127.868 95.72 128.401 95.6733 128.921 95.58C129.454 95.4733 129.888 95.3467 130.221 95.2L130.621 97.62C130.461 97.7 130.248 97.78 129.981 97.86C129.714 97.94 129.414 98.0067 129.081 98.06C128.761 98.1267 128.414 98.18 128.041 98.22C127.668 98.26 127.294 98.28 126.921 98.28C125.974 98.28 125.148 98.14 124.441 97.86C123.748 97.58 123.168 97.2 122.701 96.72C122.248 96.2267 121.908 95.6467 121.681 94.98C121.468 94.3133 121.361 93.5933 121.361 92.82ZM128.361 91.68C128.348 91.4267 128.301 91.18 128.221 90.94C128.154 90.7 128.041 90.4867 127.881 90.3C127.734 90.1133 127.541 89.96 127.301 89.84C127.074 89.72 126.788 89.66 126.441 89.66C126.108 89.66 125.821 89.72 125.581 89.84C125.341 89.9467 125.141 90.0933 124.981 90.28C124.821 90.4667 124.694 90.6867 124.601 90.94C124.521 91.18 124.461 91.4267 124.421 91.68H128.361ZM133.041 92.74C133.041 91.98 133.161 91.2667 133.401 90.6C133.654 89.92 134.014 89.3333 134.481 88.84C134.947 88.3333 135.514 87.9333 136.181 87.64C136.847 87.3467 137.607 87.2 138.461 87.2C139.021 87.2 139.534 87.2533 140.001 87.36C140.467 87.4533 140.921 87.5933 141.361 87.78L140.741 90.16C140.461 90.0533 140.154 89.96 139.821 89.88C139.487 89.8 139.114 89.76 138.701 89.76C137.821 89.76 137.161 90.0333 136.721 90.58C136.294 91.1267 136.081 91.8467 136.081 92.74C136.081 93.6867 136.281 94.42 136.681 94.94C137.094 95.46 137.807 95.72 138.821 95.72C139.181 95.72 139.567 95.6867 139.981 95.62C140.394 95.5533 140.774 95.4467 141.121 95.3L141.541 97.74C141.194 97.8867 140.761 98.0133 140.241 98.12C139.721 98.2267 139.147 98.28 138.521 98.28C137.561 98.28 136.734 98.14 136.041 97.86C135.347 97.5667 134.774 97.1733 134.321 96.68C133.881 96.1867 133.554 95.6067 133.341 94.94C133.141 94.26 133.041 93.5267 133.041 92.74ZM143.441 84.86L146.421 84.38V87.48H150.001V89.96H146.421V93.66C146.421 94.2867 146.527 94.7867 146.741 95.16C146.967 95.5333 147.414 95.72 148.081 95.72C148.401 95.72 148.727 95.6933 149.061 95.64C149.407 95.5733 149.721 95.4867 150.001 95.38L150.421 97.7C150.061 97.8467 149.661 97.9733 149.221 98.08C148.781 98.1867 148.241 98.24 147.601 98.24C146.787 98.24 146.114 98.1333 145.581 97.92C145.047 97.6933 144.621 97.3867 144.301 97C143.981 96.6 143.754 96.12 143.621 95.56C143.501 95 143.441 94.38 143.441 93.7V84.86ZM155.407 98H152.427V87.48H155.407V98ZM155.687 84.44C155.687 84.9867 155.507 85.42 155.147 85.74C154.801 86.0467 154.387 86.2 153.907 86.2C153.427 86.2 153.007 86.0467 152.647 85.74C152.301 85.42 152.127 84.9867 152.127 84.44C152.127 83.8933 152.301 83.4667 152.647 83.16C153.007 82.84 153.427 82.68 153.907 82.68C154.387 82.68 154.801 82.84 155.147 83.16C155.507 83.4667 155.687 83.8933 155.687 84.44ZM168.049 92.72C168.049 93.5467 167.929 94.3067 167.689 95C167.449 95.68 167.102 96.2667 166.649 96.76C166.195 97.24 165.649 97.6133 165.009 97.88C164.382 98.1467 163.675 98.28 162.889 98.28C162.115 98.28 161.409 98.1467 160.769 97.88C160.142 97.6133 159.602 97.24 159.149 96.76C158.695 96.2667 158.342 95.68 158.089 95C157.835 94.3067 157.709 93.5467 157.709 92.72C157.709 91.8933 157.835 91.14 158.089 90.46C158.355 89.78 158.715 89.2 159.169 88.72C159.635 88.24 160.182 87.8667 160.809 87.6C161.449 87.3333 162.142 87.2 162.889 87.2C163.649 87.2 164.342 87.3333 164.969 87.6C165.609 87.8667 166.155 88.24 166.609 88.72C167.062 89.2 167.415 89.78 167.669 90.46C167.922 91.14 168.049 91.8933 168.049 92.72ZM165.009 92.72C165.009 91.8 164.822 91.08 164.449 90.56C164.089 90.0267 163.569 89.76 162.889 89.76C162.209 89.76 161.682 90.0267 161.309 90.56C160.935 91.08 160.749 91.8 160.749 92.72C160.749 93.64 160.935 94.3733 161.309 94.92C161.682 95.4533 162.209 95.72 162.889 95.72C163.569 95.72 164.089 95.4533 164.449 94.92C164.822 94.3733 165.009 93.64 165.009 92.72ZM170.357 87.84C170.864 87.6933 171.517 87.56 172.317 87.44C173.117 87.3067 173.957 87.24 174.837 87.24C175.73 87.24 176.47 87.36 177.057 87.6C177.657 87.8267 178.13 88.1533 178.477 88.58C178.824 89.0067 179.07 89.5133 179.217 90.1C179.364 90.6867 179.437 91.34 179.437 92.06V98H176.457V92.42C176.457 91.46 176.33 90.78 176.077 90.38C175.824 89.98 175.35 89.78 174.657 89.78C174.444 89.78 174.217 89.7933 173.977 89.82C173.737 89.8333 173.524 89.8533 173.337 89.88V98H170.357V87.84Z" fill="white"/>
    <g clip-path="url(#clip0_14466_135315)">
    <path d="M132.388 0.500002C136.088 2 139.388 4.2 142.388 7.3C142.788 7.7 143.188 8.2 143.688 8.7C143.088 8.6 142.788 8.4 142.388 8.1C137.488 3.8 131.688 1 125.088 0.600002C119.788 0.300002 114.488 0.300002 109.188 0.400002V1.2H121.988C129.988 1.2 136.488 4.5 141.688 10.2C141.888 10.4 141.988 10.8 142.188 11.1C138.088 7.6 133.688 5 128.388 3.8C123.088 2.6 117.888 3.2 112.588 3.4C113.188 3.8 113.788 3.9 114.288 3.9C117.088 3.9 119.888 3.9 122.688 3.9C130.088 4.1 135.888 7.6 140.188 13.3C136.888 10.1 132.988 7.9 128.588 6.6C124.088 5.4 119.588 5.8 114.988 5.9C119.288 6.5 123.788 6.6 127.988 7.5C132.388 8.5 135.688 11.4 138.288 15.1C133.988 11.1 128.988 8.6 123.088 8.4C118.688 8.3 114.288 8.4 109.788 8.4C109.588 8.4 109.388 8.5 109.188 8.6V9.2H110.888C114.988 9.2 119.188 9.1 123.188 9.3C128.688 9.6 132.788 12.4 135.988 16.7C131.988 13.1 127.388 11.1 121.888 11.1H109.188V11.9C113.388 11.9 117.688 12 121.888 11.9C125.988 11.8 131.888 14.5 133.888 18.8C130.688 15.8 127.088 14 122.888 13.9C118.888 13.8 114.788 13.9 110.788 13.9V14.6C111.388 14.6 111.988 14.7 112.488 14.7C115.688 14.7 118.788 14.7 121.988 14.7C129.288 14.8 135.688 19.9 137.288 26.8C139.688 37 132.188 46.2 121.288 46.3C117.188 46.3 113.188 46.3 109.088 46.3V47H121.488C125.088 47 128.388 46 131.288 44C132.188 43.4 132.988 42.7 134.188 41.7C130.888 46.5 126.288 48.9 120.888 48.9H109.188V49.7H121.788C126.188 49.7 130.188 48.4 133.588 45.8C133.988 45.5 134.388 45.2 134.888 44.9C131.488 49.1 127.088 51.5 121.688 51.5C117.588 51.5 113.388 51.5 109.288 51.5V52.3C113.788 52.3 118.188 52.3 122.688 52.2C127.188 52.2 131.388 50.6 135.088 48C135.488 47.7 135.988 47.4 136.388 47.1C132.488 51.6 127.688 54.1 121.588 54.2C117.488 54.2 113.388 54.2 109.288 54.2V55C113.788 55 118.288 55 122.888 54.9C124.988 54.9 127.288 54.5 129.188 53.8C132.188 52.7 134.988 51.2 137.688 49.9C134.588 53.1 130.588 55.7 125.688 56.3C121.388 56.8 116.988 56.6 112.688 56.7C112.088 56.7 111.488 56.8 110.888 56.9L110.988 57.4C120.888 57.6 130.888 58.6 139.388 51.8C136.288 55.2 132.588 57.7 128.188 58.5C123.888 59.2 119.488 59.1 115.188 59.4C114.588 59.4 113.988 59.5 113.388 59.6C113.388 59.7 113.388 59.9 113.388 60.1C117.488 60.1 121.588 60.3 125.588 60.1C131.288 59.7 136.288 57.4 140.888 54.1C138.088 56.9 134.988 59.1 131.388 60.5C143.288 58.6 152.388 48.3 152.388 35.8V24.8C152.088 12.9 143.688 2.9 132.388 0.500002Z" fill="url(#paint0_linear_14466_135315)"/>
    <path d="M69.5879 60.9V0H86.5879V23.2L105.288 0H124.488L101.988 27.3L125.988 60.9H106.588L91.2879 38.5L86.5879 43.3V60.9H69.5879Z" fill="white"/>
    </g>
    <defs>
    <linearGradient id="paint0_linear_14466_135315" x1="129.524" y1="30.4587" x2="115.371" y2="30.4587" gradientUnits="userSpaceOnUse">
    <stop stop-color="#9CD5FF"/>
    <stop offset="1" stop-color="#1A71AF" stop-opacity="0.99"/>
    </linearGradient>
    <clipPath id="clip0_14466_135315">
    <rect width="82.5" height="60.9" fill="white" transform="translate(69.5879)"/>
    </clipPath>
    </defs>
    </svg>
    