<svg width="345" height="90" viewBox="0 0 345 90" fill="none" xmlns="http://www.w3.org/2000/svg">
    <g clip-path="url(#clip0_22108_26912)">
        <path d="M103.958 9.46021H103.074V80.5396H103.958V9.46021Z" fill="white" />
        <path
            d="M119.386 53.9084H117.65V40.2576H121.657C124.749 40.2576 126.674 41.5592 126.674 44.5115C126.674 47.3369 124.749 48.8925 121.5 48.8925H119.417V53.9084H119.386ZM119.386 47.2417H121.468C123.613 47.2417 124.781 46.3528 124.781 44.5433C124.781 42.6703 123.613 41.8766 121.468 41.8766H119.386V47.2417Z"
            fill="white" />
        <path
            d="M130.523 47.083C130.523 42.7021 133.016 40.0671 136.613 40.0671C140.651 40.0671 142.828 42.956 142.828 47.083C142.828 51.7179 140.241 54.0989 136.676 54.0989C132.921 54.0989 130.523 51.4005 130.523 47.083ZM140.935 47.083C140.935 43.337 139.263 41.6862 136.581 41.6862C134.183 41.6862 132.353 43.4322 132.353 47.083C132.353 50.6703 134.152 52.4798 136.802 52.4798C139.389 52.4798 140.935 50.6068 140.935 47.083Z"
            fill="white" />
        <path
            d="M156.803 53.5275C156.078 53.8767 155.005 54.0989 153.838 54.0989C149.61 54.0989 147.086 51.4322 147.086 47.2418C147.086 42.6068 149.673 40.0354 153.743 40.0354C155.289 40.0354 156.204 40.3211 156.835 40.5751L156.519 42.1306C155.668 41.8132 154.784 41.6862 153.932 41.6862C150.714 41.6862 148.979 43.5592 148.979 47.083C148.979 50.4798 150.935 52.4798 154.122 52.4798C154.973 52.4798 155.888 52.3211 156.551 52.0037L156.803 53.5275Z"
            fill="white" />
        <path
            d="M162.64 46.0354H168.319C168.193 43.083 166.3 41.7179 163.618 41.7179C162.829 41.7179 161.694 41.8132 160.747 42.1941L160.432 40.7656C161.094 40.4163 162.514 40.0671 163.902 40.0671C167.783 40.0671 170.244 42.1624 170.244 46.9243C170.244 51.4005 167.972 54.1306 163.397 54.1306C161.978 54.1306 161.094 53.8767 160.463 53.6544L160.779 52.0989C161.599 52.3846 162.672 52.4798 163.397 52.4798C166.363 52.4798 168.288 50.9243 168.351 47.6544H162.64V46.0354Z"
            fill="white" />
        <path
            d="M185.421 53.9084H183.685V47.6226H176.808V53.9084H175.072V40.2576H176.808V46.0353H183.685V40.2576H185.421V53.9084Z"
            fill="white" />
        <path
            d="M198.418 53.9084H190.846V40.2576H198.418V41.9084H192.581V46.0353H197.913V47.6226H192.581V52.2576H198.418V53.9084Z"
            fill="white" />
        <path
            d="M205.106 53.9084H203.371V40.2576H207.378C210.47 40.2576 212.394 41.5592 212.394 44.5115C212.394 47.3369 210.47 48.8925 207.22 48.8925H205.138V53.9084H205.106ZM205.106 47.2417H207.189C209.334 47.2417 210.501 46.3528 210.501 44.5433C210.501 42.6703 209.334 41.8766 207.189 41.8766H205.106V47.2417Z"
            fill="white" />
        <path d="M218.548 53.9084H216.812V40.2576H224.006V41.9084H218.548V53.9084Z" fill="white" />
        <path
            d="M226.814 47.083C226.814 42.7021 229.307 40.0671 232.904 40.0671C236.942 40.0671 239.119 42.956 239.119 47.083C239.119 51.7179 236.532 54.0989 232.967 54.0989C229.212 54.0989 226.814 51.4005 226.814 47.083ZM237.226 47.083C237.226 43.337 235.554 41.6862 232.872 41.6862C230.474 41.6862 228.644 43.4322 228.644 47.083C228.644 50.6703 230.443 52.4798 233.093 52.4798C235.68 52.4798 237.226 50.6068 237.226 47.083Z"
            fill="white" />
        <path
            d="M251.075 50.2576H245.27L243.945 53.9084H242.178L247.352 40.2576H249.087L254.167 53.9084H252.337L251.075 50.2576ZM245.838 48.6703H250.507L248.235 42.2576H248.172L245.838 48.6703Z"
            fill="white" />
        <path d="M261.486 53.9084H259.751V41.9084H255.744V40.2576H265.493V41.9084H261.486V53.9084Z" fill="white" />
        <path
            d="M268.617 47.083C268.617 42.7021 271.11 40.0671 274.706 40.0671C278.745 40.0671 280.922 42.956 280.922 47.083C280.922 51.7179 278.335 54.0989 274.769 54.0989C270.983 54.0989 268.617 51.4005 268.617 47.083ZM279.029 47.083C279.029 43.337 277.357 41.6862 274.675 41.6862C272.277 41.6862 270.447 43.4322 270.447 47.083C270.447 50.6703 272.245 52.4798 274.896 52.4798C277.451 52.4798 279.029 50.6068 279.029 47.083Z"
            fill="white" />
        <path
            d="M299.001 53.9084H297.234L296.414 43.2417L292.975 53.9084H291.176L287.737 43.2734L286.886 53.9084H285.15L286.318 40.2576H288.463L292.123 52.0036L295.688 40.2576H297.834L299.001 53.9084Z"
            fill="white" />
        <path
            d="M119.039 74.8608H117.65V63.9402H120.837C123.298 63.9402 124.844 64.9561 124.844 67.337C124.844 69.591 123.298 70.8291 120.711 70.8291H119.039V74.8608ZM119.039 69.5275H120.711C122.446 69.5275 123.361 68.8291 123.361 67.3688C123.361 65.8767 122.446 65.2418 120.711 65.2418H119.039V69.5275Z"
            fill="white" />
        <path
            d="M127.809 69.4005C127.809 65.9085 129.796 63.7815 132.667 63.7815C135.885 63.7815 137.621 66.099 137.621 69.4005C137.621 73.1148 135.538 75.0196 132.699 75.0196C129.702 75.0196 127.809 72.8609 127.809 69.4005ZM136.138 69.4005C136.138 66.4164 134.813 65.0831 132.667 65.0831C130.774 65.0831 129.291 66.4799 129.291 69.4005C129.291 72.2577 130.711 73.718 132.857 73.718C134.876 73.718 136.138 72.2259 136.138 69.4005Z"
            fill="white" />
        <path
            d="M148.695 74.5751C148.096 74.8609 147.275 75.0196 146.329 75.0196C142.953 75.0196 140.902 72.8926 140.902 69.5275C140.902 65.8132 142.985 63.7815 146.234 63.7815C147.465 63.7815 148.19 64.0037 148.727 64.1942L148.474 65.4323C147.78 65.1783 147.086 65.0831 146.392 65.0831C143.805 65.0831 142.417 66.5751 142.417 69.4005C142.417 72.1307 143.994 73.718 146.518 73.718C147.212 73.718 147.938 73.591 148.474 73.3371L148.695 74.5751Z"
            fill="white" />
        <path
            d="M158.444 71.9402H153.807L152.765 74.8608H151.346L155.479 63.9402H156.867L160.937 74.8608H159.486L158.444 71.9402ZM154.248 70.6703H158.003L156.173 65.5275H156.11L154.248 70.6703Z"
            fill="white" />
        <path d="M166.647 74.8608H165.228V65.2418H162.041V63.9402H169.834V65.2418H166.647V74.8608Z" fill="white" />
        <path
            d="M172.168 69.4005C172.168 65.9085 174.156 63.7815 177.027 63.7815C180.245 63.7815 181.98 66.099 181.98 69.4005C181.98 73.1148 179.898 75.0196 177.058 75.0196C174.093 75.0196 172.168 72.8609 172.168 69.4005ZM180.529 69.4005C180.529 66.4164 179.204 65.0831 177.058 65.0831C175.165 65.0831 173.682 66.4799 173.682 69.4005C173.682 72.2577 175.102 73.718 177.248 73.718C179.267 73.718 180.529 72.2259 180.529 69.4005Z"
            fill="white" />
        <path
            d="M196.336 74.8608H194.948L194.285 66.3211L191.54 74.8608H190.089L187.344 66.3529L186.65 74.8608H185.262L186.208 63.9402H187.912L190.846 73.337L193.717 63.9402H195.421L196.336 74.8608Z"
            fill="white" />
        <path
            d="M54.1085 45.0159C54.1085 50.254 49.8808 54.4762 44.7066 54.4445C39.5324 54.4445 35.3047 50.1905 35.3047 44.9842C35.3047 39.7461 39.5324 35.5239 44.7066 35.5556C49.9124 35.5556 54.1085 39.7778 54.1085 45.0159Z"
            fill="white" />
        <path
            d="M44.8014 0C38.0182 0 31.582 1.52381 25.8398 4.22222C33.5065 3.42857 41.4571 6.7619 47.3254 12.6984C50.2596 15.619 52.8467 19.3968 55.0237 23.9683C67.4859 26.2222 75.9413 20 79.2857 16.2857C71.0826 6.34921 58.6835 0 44.8014 0Z"
            fill="white" />
        <path
            d="M17.8258 9.07927C11.6736 13.7459 6.78331 19.9682 3.69141 27.1428C7.41431 28.0634 18.5515 31.7142 23.6626 45.5872C25.2086 45.0793 28.5213 43.1428 30.8245 35.6507C33.6324 26.4761 38.7751 17.619 45.4637 13.6824C38.081 6.50784 26.9438 3.36499 17.8258 9.07927Z"
            fill="white" />
        <path
            d="M83.5763 67.4921C86.9522 61.5873 88.8767 55.2381 89.4131 48.8889C86.2581 55.9365 79.4432 61.2064 71.3349 63.3334C67.3596 64.4445 62.7848 64.7619 57.7684 64.4127C49.5969 74.127 50.7327 84.6032 52.2471 89.3651C64.9933 87.1746 76.6668 79.5556 83.5763 67.4921Z"
            fill="white" />
        <path
            d="M89.2551 39.492C88.3086 31.8095 85.406 24.4444 80.7682 18.1587C78.118 20.9206 69.4101 28.7936 54.8971 26.3174C54.5501 27.9047 54.5816 31.746 59.882 37.492C66.3813 44.5396 71.4609 53.4285 71.4925 61.2063C81.3361 58.4127 89.6022 50.2857 89.2551 39.492Z"
            fill="white" />
        <path
            d="M5.99466 67.492C9.37052 73.3967 13.9137 78.2221 19.1195 81.8729C14.6078 75.619 13.5036 67.0158 15.6805 58.9206C16.7217 54.9206 18.7093 50.7618 21.5488 46.6031C17.258 34.6348 7.66682 30.3809 2.80811 29.3333C-1.672 41.4602 -0.946352 55.4285 5.99466 67.492Z"
            fill="white" />
        <path
            d="M27.3225 86.4127C34.4212 89.4286 42.2141 90.5714 49.9754 89.6825C48.9027 85.9682 46.4734 74.4762 55.8753 63.0793C54.6764 62 51.3321 60.0952 43.7285 61.8095C34.4212 63.9365 24.199 63.9047 17.4788 60.0635C14.9864 70.0635 17.8574 81.3333 27.3225 86.4127Z"
            fill="white" />
    </g>
    <path
        d="M120.78 27.0667C120.099 27.0667 119.478 26.9547 118.918 26.7307C118.358 26.5067 117.878 26.18 117.476 25.7507C117.075 25.3214 116.762 24.794 116.538 24.1687C116.324 23.534 116.216 22.8107 116.216 21.9987C116.216 21.1867 116.338 20.468 116.58 19.8427C116.832 19.208 117.168 18.676 117.588 18.2467C118.008 17.8174 118.498 17.4907 119.058 17.2667C119.618 17.0427 120.216 16.9307 120.85 16.9307C121.252 16.9307 121.611 16.9587 121.928 17.0147C122.255 17.0707 122.535 17.136 122.768 17.2107C123.011 17.2854 123.207 17.36 123.356 17.4347C123.506 17.5094 123.608 17.5654 123.664 17.6027L123.272 18.7227C123.188 18.6667 123.067 18.606 122.908 18.5407C122.75 18.4754 122.568 18.41 122.362 18.3447C122.166 18.2794 121.947 18.228 121.704 18.1907C121.471 18.144 121.233 18.1207 120.99 18.1207C120.477 18.1207 120.015 18.2094 119.604 18.3867C119.194 18.564 118.844 18.8207 118.554 19.1567C118.265 19.4927 118.041 19.9034 117.882 20.3887C117.733 20.8647 117.658 21.4014 117.658 21.9987C117.658 22.5774 117.724 23.1047 117.854 23.5807C117.994 24.0567 118.2 24.4674 118.47 24.8127C118.741 25.1487 119.077 25.41 119.478 25.5967C119.889 25.7834 120.365 25.8767 120.906 25.8767C121.532 25.8767 122.05 25.8114 122.46 25.6807C122.871 25.55 123.179 25.4334 123.384 25.3307L123.734 26.4507C123.669 26.4974 123.552 26.558 123.384 26.6327C123.216 26.698 123.006 26.7634 122.754 26.8287C122.502 26.894 122.208 26.95 121.872 26.9967C121.536 27.0434 121.172 27.0667 120.78 27.0667ZM131.324 19.5767V26.8567H130.064V21.3127C129.784 21.6674 129.476 22.0827 129.14 22.5587C128.804 23.0347 128.468 23.5294 128.132 24.0427C127.796 24.5467 127.474 25.046 127.166 25.5407C126.858 26.0354 126.592 26.474 126.368 26.8567H125.206V19.5767H126.466V24.8127C126.709 24.4114 126.984 23.9727 127.292 23.4967C127.6 23.0114 127.917 22.5354 128.244 22.0687C128.58 21.5927 128.911 21.14 129.238 20.7107C129.574 20.272 129.887 19.894 130.176 19.5767H131.324ZM136.723 27.0247C136.135 27.0247 135.617 26.9314 135.169 26.7447C134.731 26.558 134.357 26.2967 134.049 25.9607C133.751 25.6247 133.527 25.228 133.377 24.7707C133.228 24.304 133.153 23.7907 133.153 23.2307C133.153 22.6707 133.233 22.1574 133.391 21.6907C133.559 21.224 133.793 20.8227 134.091 20.4867C134.39 20.1414 134.754 19.8754 135.183 19.6887C135.622 19.4927 136.107 19.3947 136.639 19.3947C136.966 19.3947 137.293 19.4227 137.619 19.4787C137.946 19.5347 138.259 19.6234 138.557 19.7447L138.263 20.8507C138.067 20.7574 137.839 20.6827 137.577 20.6267C137.325 20.5707 137.055 20.5427 136.765 20.5427C136.037 20.5427 135.477 20.7714 135.085 21.2287C134.703 21.686 134.511 22.3534 134.511 23.2307C134.511 23.6227 134.553 23.982 134.637 24.3087C134.731 24.6354 134.871 24.9154 135.057 25.1487C135.253 25.382 135.501 25.564 135.799 25.6947C136.098 25.816 136.462 25.8767 136.891 25.8767C137.237 25.8767 137.549 25.844 137.829 25.7787C138.109 25.7134 138.329 25.6434 138.487 25.5687L138.669 26.6607C138.595 26.7074 138.487 26.754 138.347 26.8007C138.207 26.838 138.049 26.8707 137.871 26.8987C137.694 26.936 137.503 26.964 137.297 26.9827C137.101 27.0107 136.91 27.0247 136.723 27.0247ZM145.41 19.5767V20.6687H143.044V26.8567H141.742V20.6687H139.376V19.5767H145.41ZM146.347 23.2307C146.347 22.5867 146.44 22.0267 146.627 21.5507C146.813 21.0654 147.061 20.664 147.369 20.3467C147.677 20.0294 148.031 19.7914 148.433 19.6327C148.834 19.474 149.245 19.3947 149.665 19.3947C150.645 19.3947 151.396 19.7027 151.919 20.3187C152.441 20.9254 152.703 21.854 152.703 23.1047C152.703 23.1607 152.703 23.2354 152.703 23.3287C152.703 23.4127 152.698 23.492 152.689 23.5667H147.705C147.761 24.3227 147.98 24.8967 148.363 25.2887C148.745 25.6807 149.343 25.8767 150.155 25.8767C150.612 25.8767 150.995 25.8394 151.303 25.7647C151.62 25.6807 151.858 25.6014 152.017 25.5267L152.199 26.6187C152.04 26.7027 151.76 26.7914 151.359 26.8847C150.967 26.978 150.519 27.0247 150.015 27.0247C149.38 27.0247 148.829 26.9314 148.363 26.7447C147.905 26.5487 147.527 26.2827 147.229 25.9467C146.93 25.6107 146.706 25.214 146.557 24.7567C146.417 24.29 146.347 23.7814 146.347 23.2307ZM151.345 22.5167C151.354 21.9287 151.205 21.448 150.897 21.0747C150.598 20.692 150.183 20.5007 149.651 20.5007C149.352 20.5007 149.086 20.5614 148.853 20.6827C148.629 20.7947 148.437 20.944 148.279 21.1307C148.12 21.3174 147.994 21.532 147.901 21.7747C147.817 22.0174 147.761 22.2647 147.733 22.5167H151.345ZM155.959 21.4947C155.866 22.4187 155.796 23.3427 155.749 24.2667C155.702 25.1814 155.665 26.0447 155.637 26.8567H154.391C154.41 26.2874 154.438 25.6947 154.475 25.0787C154.512 24.4534 154.554 23.828 154.601 23.2027C154.648 22.568 154.699 21.9474 154.755 21.3407C154.811 20.7247 154.872 20.1367 154.937 19.5767H156.127C156.426 20.062 156.776 20.7294 157.177 21.5787C157.578 22.4187 158.04 23.3894 158.563 24.4907C159.086 23.3894 159.548 22.4187 159.949 21.5787C160.35 20.7294 160.7 20.062 160.999 19.5767H162.203C162.268 20.1367 162.329 20.7247 162.385 21.3407C162.441 21.9474 162.492 22.568 162.539 23.2027C162.586 23.828 162.628 24.4534 162.665 25.0787C162.702 25.6947 162.73 26.2874 162.749 26.8567H161.461C161.433 26.0447 161.396 25.1814 161.349 24.2667C161.302 23.3427 161.232 22.4187 161.139 21.4947C160.99 21.784 160.817 22.134 160.621 22.5447C160.425 22.946 160.229 23.3567 160.033 23.7767C159.846 24.1967 159.669 24.598 159.501 24.9807C159.333 25.3634 159.202 25.6667 159.109 25.8907H158.017C157.914 25.6574 157.774 25.3494 157.597 24.9667C157.429 24.584 157.247 24.1827 157.051 23.7627C156.864 23.3334 156.673 22.918 156.477 22.5167C156.281 22.106 156.108 21.7654 155.959 21.4947ZM167.277 25.9187C167.585 25.9187 167.856 25.914 168.089 25.9047C168.332 25.886 168.533 25.858 168.691 25.8207V23.6507C168.598 23.604 168.444 23.5667 168.229 23.5387C168.024 23.5014 167.772 23.4827 167.473 23.4827C167.277 23.4827 167.067 23.4967 166.843 23.5247C166.629 23.5527 166.428 23.6134 166.241 23.7067C166.064 23.7907 165.915 23.912 165.793 24.0707C165.672 24.22 165.611 24.4207 165.611 24.6727C165.611 25.1394 165.761 25.466 166.059 25.6527C166.358 25.83 166.764 25.9187 167.277 25.9187ZM167.165 19.3947C167.688 19.3947 168.127 19.4647 168.481 19.6047C168.845 19.7354 169.135 19.9267 169.349 20.1787C169.573 20.4214 169.732 20.7154 169.825 21.0607C169.919 21.3967 169.965 21.77 169.965 22.1807V26.7307C169.853 26.7494 169.695 26.7774 169.489 26.8147C169.293 26.8427 169.069 26.8707 168.817 26.8987C168.565 26.9267 168.29 26.95 167.991 26.9687C167.702 26.9967 167.413 27.0107 167.123 27.0107C166.713 27.0107 166.335 26.9687 165.989 26.8847C165.644 26.8007 165.345 26.67 165.093 26.4927C164.841 26.306 164.645 26.0634 164.505 25.7647C164.365 25.466 164.295 25.1067 164.295 24.6867C164.295 24.2854 164.375 23.94 164.533 23.6507C164.701 23.3614 164.925 23.128 165.205 22.9507C165.485 22.7734 165.812 22.6427 166.185 22.5587C166.559 22.4747 166.951 22.4327 167.361 22.4327C167.492 22.4327 167.627 22.442 167.767 22.4607C167.907 22.47 168.038 22.4887 168.159 22.5167C168.29 22.5354 168.402 22.554 168.495 22.5727C168.589 22.5914 168.654 22.6054 168.691 22.6147V22.2507C168.691 22.036 168.668 21.826 168.621 21.6207C168.575 21.406 168.491 21.2194 168.369 21.0607C168.248 20.8927 168.08 20.762 167.865 20.6687C167.66 20.566 167.389 20.5147 167.053 20.5147C166.624 20.5147 166.246 20.5474 165.919 20.6127C165.602 20.6687 165.364 20.7294 165.205 20.7947L165.051 19.7167C165.219 19.642 165.499 19.572 165.891 19.5067C166.283 19.432 166.708 19.3947 167.165 19.3947ZM181.22 26.8567H179.918V20.6687H176.67V26.8567H175.368V19.5767H181.22V26.8567ZM188.516 23.2307C188.516 22.3814 188.306 21.728 187.886 21.2707C187.466 20.8134 186.906 20.5847 186.206 20.5847C185.814 20.5847 185.506 20.5987 185.282 20.6267C185.067 20.6547 184.894 20.6874 184.764 20.7247V25.3167C184.922 25.4474 185.151 25.5734 185.45 25.6947C185.748 25.816 186.075 25.8767 186.43 25.8767C186.803 25.8767 187.12 25.8114 187.382 25.6807C187.652 25.5407 187.872 25.354 188.04 25.1207C188.208 24.878 188.329 24.598 188.404 24.2807C188.478 23.954 188.516 23.604 188.516 23.2307ZM189.874 23.2307C189.874 23.7814 189.799 24.29 189.65 24.7567C189.51 25.2234 189.3 25.6247 189.02 25.9607C188.74 26.2967 188.394 26.558 187.984 26.7447C187.582 26.9314 187.12 27.0247 186.598 27.0247C186.178 27.0247 185.804 26.9687 185.478 26.8567C185.16 26.7447 184.922 26.6374 184.764 26.5347V29.4467H183.462V19.8007C183.77 19.726 184.152 19.6467 184.61 19.5627C185.076 19.4694 185.613 19.4227 186.22 19.4227C186.78 19.4227 187.284 19.5114 187.732 19.6887C188.18 19.866 188.562 20.118 188.88 20.4447C189.197 20.7714 189.44 21.1727 189.608 21.6487C189.785 22.1154 189.874 22.6427 189.874 23.2307ZM191.3 23.2307C191.3 22.5867 191.393 22.0267 191.58 21.5507C191.767 21.0654 192.014 20.664 192.322 20.3467C192.63 20.0294 192.985 19.7914 193.386 19.6327C193.787 19.474 194.198 19.3947 194.618 19.3947C195.598 19.3947 196.349 19.7027 196.872 20.3187C197.395 20.9254 197.656 21.854 197.656 23.1047C197.656 23.1607 197.656 23.2354 197.656 23.3287C197.656 23.4127 197.651 23.492 197.642 23.5667H192.658C192.714 24.3227 192.933 24.8967 193.316 25.2887C193.699 25.6807 194.296 25.8767 195.108 25.8767C195.565 25.8767 195.948 25.8394 196.256 25.7647C196.573 25.6807 196.811 25.6014 196.97 25.5267L197.152 26.6187C196.993 26.7027 196.713 26.7914 196.312 26.8847C195.92 26.978 195.472 27.0247 194.968 27.0247C194.333 27.0247 193.783 26.9314 193.316 26.7447C192.859 26.5487 192.481 26.2827 192.182 25.9467C191.883 25.6107 191.659 25.214 191.51 24.7567C191.37 24.29 191.3 23.7814 191.3 23.2307ZM196.298 22.5167C196.307 21.9287 196.158 21.448 195.85 21.0747C195.551 20.692 195.136 20.5007 194.604 20.5007C194.305 20.5007 194.039 20.5614 193.806 20.6827C193.582 20.7947 193.391 20.944 193.232 21.1307C193.073 21.3174 192.947 21.532 192.854 21.7747C192.77 22.0174 192.714 22.2647 192.686 22.5167H196.298ZM198.63 25.7927H199.414C199.722 25.3447 199.965 24.8827 200.142 24.4067C200.329 23.9307 200.469 23.4407 200.562 22.9367C200.656 22.4234 200.716 21.8914 200.744 21.3407C200.772 20.7807 200.791 20.1927 200.8 19.5767H205.574V25.7927H206.554V28.8867H205.322V26.8567H199.862V28.8867H198.63V25.7927ZM204.272 25.7927V20.6687H201.99C201.981 21.1074 201.958 21.5507 201.92 21.9987C201.883 22.4374 201.822 22.876 201.738 23.3147C201.654 23.744 201.533 24.1687 201.374 24.5887C201.225 24.9994 201.034 25.4007 200.8 25.7927H204.272ZM214.08 19.5767V26.8567H212.82V21.3127C212.54 21.6674 212.232 22.0827 211.896 22.5587C211.56 23.0347 211.224 23.5294 210.888 24.0427C210.552 24.5467 210.23 25.046 209.922 25.5407C209.614 26.0354 209.348 26.474 209.124 26.8567H207.962V19.5767H209.222V24.8127C209.464 24.4114 209.74 23.9727 210.048 23.4967C210.356 23.0114 210.673 22.5354 211 22.0687C211.336 21.5927 211.667 21.14 211.994 20.7107C212.33 20.272 212.642 19.894 212.932 19.5767H214.08ZM218.975 22.8947C219.265 23.1 219.577 23.3614 219.913 23.6787C220.249 23.9867 220.576 24.3227 220.893 24.6867C221.22 25.0507 221.523 25.424 221.803 25.8067C222.083 26.18 222.321 26.53 222.517 26.8567H220.977C220.772 26.5394 220.529 26.2174 220.249 25.8907C219.979 25.5547 219.694 25.2327 219.395 24.9247C219.097 24.6167 218.793 24.332 218.485 24.0707C218.177 23.8094 217.888 23.59 217.617 23.4127V26.8567H216.315V19.5767H217.617V22.6987C217.841 22.484 218.098 22.2367 218.387 21.9567C218.677 21.6674 218.966 21.378 219.255 21.0887C219.554 20.79 219.829 20.51 220.081 20.2487C220.333 19.978 220.539 19.754 220.697 19.5767H222.209C222.004 19.8007 221.761 20.0574 221.481 20.3467C221.211 20.6267 220.926 20.916 220.627 21.2147C220.338 21.5134 220.049 21.812 219.759 22.1107C219.47 22.4 219.209 22.6614 218.975 22.8947ZM228.973 19.5767V20.6687H226.607V26.8567H225.305V20.6687H222.939V19.5767H228.973ZM236.433 19.5767V26.8567H235.173V21.3127C234.893 21.6674 234.585 22.0827 234.249 22.5587C233.913 23.0347 233.577 23.5294 233.241 24.0427C232.905 24.5467 232.583 25.046 232.275 25.5407C231.967 26.0354 231.701 26.474 231.477 26.8567H230.315V19.5767H231.575V24.8127C231.818 24.4114 232.093 23.9727 232.401 23.4967C232.709 23.0114 233.027 22.5354 233.353 22.0687C233.689 21.5927 234.021 21.14 234.347 20.7107C234.683 20.272 234.996 19.894 235.285 19.5767H236.433ZM239.943 25.8767C239.999 25.886 240.078 25.8954 240.181 25.9047C240.283 25.914 240.4 25.9234 240.531 25.9327C240.661 25.9327 240.797 25.9374 240.937 25.9467C241.086 25.9467 241.226 25.9467 241.357 25.9467C241.627 25.9467 241.884 25.928 242.127 25.8907C242.379 25.8534 242.593 25.788 242.771 25.6947C242.957 25.6014 243.102 25.48 243.205 25.3307C243.317 25.172 243.373 24.9714 243.373 24.7287C243.373 24.4954 243.321 24.304 243.219 24.1547C243.125 23.996 242.995 23.87 242.827 23.7767C242.659 23.6834 242.458 23.618 242.225 23.5807C242.001 23.5434 241.758 23.5247 241.497 23.5247H239.943V25.8767ZM241.329 22.5587C241.581 22.5587 241.809 22.5447 242.015 22.5167C242.229 22.4794 242.411 22.4187 242.561 22.3347C242.719 22.2507 242.841 22.1387 242.925 21.9987C243.018 21.8587 243.065 21.6814 243.065 21.4667C243.065 21.2427 243.009 21.0654 242.897 20.9347C242.785 20.804 242.635 20.706 242.449 20.6407C242.271 20.566 242.066 20.5194 241.833 20.5007C241.609 20.4727 241.38 20.4587 241.147 20.4587C240.932 20.4587 240.713 20.4634 240.489 20.4727C240.274 20.482 240.092 20.4914 239.943 20.5007V22.5587H241.329ZM241.301 26.9827C240.75 26.9827 240.241 26.9547 239.775 26.8987C239.308 26.852 238.939 26.796 238.669 26.7307V19.6467C238.939 19.5814 239.308 19.5254 239.775 19.4787C240.241 19.4227 240.75 19.3947 241.301 19.3947C241.683 19.3947 242.057 19.4274 242.421 19.4927C242.785 19.558 243.107 19.67 243.387 19.8287C243.667 19.978 243.891 20.188 244.059 20.4587C244.236 20.72 244.325 21.0467 244.325 21.4387C244.325 21.7934 244.236 22.0967 244.059 22.3487C243.881 22.6007 243.643 22.7967 243.345 22.9367C243.746 23.0767 244.063 23.2867 244.297 23.5667C244.539 23.8374 244.661 24.22 244.661 24.7147C244.661 25.1534 244.572 25.5174 244.395 25.8067C244.227 26.096 243.989 26.3294 243.681 26.5067C243.382 26.684 243.027 26.8054 242.617 26.8707C242.206 26.9454 241.767 26.9827 241.301 26.9827ZM252.303 26.8567H251.001V23.6367H247.641V26.8567H246.339V19.5767H247.641V22.5447H251.001V19.5767H252.303V26.8567ZM260.968 23.2167C260.968 23.7954 260.884 24.318 260.716 24.7847C260.548 25.2514 260.31 25.6527 260.002 25.9887C259.703 26.3247 259.344 26.586 258.924 26.7727C258.504 26.95 258.047 27.0387 257.552 27.0387C257.057 27.0387 256.6 26.95 256.18 26.7727C255.76 26.586 255.396 26.3247 255.088 25.9887C254.789 25.6527 254.556 25.2514 254.388 24.7847C254.22 24.318 254.136 23.7954 254.136 23.2167C254.136 22.6474 254.22 22.1294 254.388 21.6627C254.556 21.1867 254.789 20.7807 255.088 20.4447C255.396 20.1087 255.76 19.852 256.18 19.6747C256.6 19.488 257.057 19.3947 257.552 19.3947C258.047 19.3947 258.504 19.488 258.924 19.6747C259.344 19.852 259.703 20.1087 260.002 20.4447C260.31 20.7807 260.548 21.1867 260.716 21.6627C260.884 22.1294 260.968 22.6474 260.968 23.2167ZM259.61 23.2167C259.61 22.3954 259.423 21.7467 259.05 21.2707C258.686 20.7854 258.187 20.5427 257.552 20.5427C256.917 20.5427 256.413 20.7854 256.04 21.2707C255.676 21.7467 255.494 22.3954 255.494 23.2167C255.494 24.038 255.676 24.6914 256.04 25.1767C256.413 25.6527 256.917 25.8907 257.552 25.8907C258.187 25.8907 258.686 25.6527 259.05 25.1767C259.423 24.6914 259.61 24.038 259.61 23.2167ZM268.918 19.5767V26.8567H267.658V21.3127C267.378 21.6674 267.07 22.0827 266.734 22.5587C266.398 23.0347 266.062 23.5294 265.726 24.0427C265.39 24.5467 265.068 25.046 264.76 25.5407C264.452 26.0354 264.186 26.474 263.962 26.8567H262.8V19.5767H264.06V24.8127C264.302 24.4114 264.578 23.9727 264.886 23.4967C265.194 23.0114 265.511 22.5354 265.838 22.0687C266.174 21.5927 266.505 21.14 266.832 20.7107C267.168 20.272 267.48 19.894 267.77 19.5767H268.918ZM265.866 18.4007C265.278 18.4007 264.797 18.2514 264.424 17.9527C264.06 17.654 263.84 17.2387 263.766 16.7067L264.76 16.4407C264.834 16.7394 264.96 16.982 265.138 17.1687C265.315 17.3554 265.558 17.4487 265.866 17.4487C266.174 17.4487 266.416 17.3554 266.594 17.1687C266.771 16.982 266.897 16.7394 266.972 16.4407L267.952 16.7067C267.877 17.2387 267.658 17.654 267.294 17.9527C266.93 18.2514 266.454 18.4007 265.866 18.4007ZM276.857 25.9187C277.165 25.9187 277.436 25.914 277.669 25.9047C277.912 25.886 278.113 25.858 278.271 25.8207V23.6507C278.178 23.604 278.024 23.5667 277.809 23.5387C277.604 23.5014 277.352 23.4827 277.053 23.4827C276.857 23.4827 276.647 23.4967 276.423 23.5247C276.209 23.5527 276.008 23.6134 275.821 23.7067C275.644 23.7907 275.495 23.912 275.373 24.0707C275.252 24.22 275.191 24.4207 275.191 24.6727C275.191 25.1394 275.341 25.466 275.639 25.6527C275.938 25.83 276.344 25.9187 276.857 25.9187ZM276.745 19.3947C277.268 19.3947 277.707 19.4647 278.061 19.6047C278.425 19.7354 278.715 19.9267 278.929 20.1787C279.153 20.4214 279.312 20.7154 279.405 21.0607C279.499 21.3967 279.545 21.77 279.545 22.1807V26.7307C279.433 26.7494 279.275 26.7774 279.069 26.8147C278.873 26.8427 278.649 26.8707 278.397 26.8987C278.145 26.9267 277.87 26.95 277.571 26.9687C277.282 26.9967 276.993 27.0107 276.703 27.0107C276.293 27.0107 275.915 26.9687 275.569 26.8847C275.224 26.8007 274.925 26.67 274.673 26.4927C274.421 26.306 274.225 26.0634 274.085 25.7647C273.945 25.466 273.875 25.1067 273.875 24.6867C273.875 24.2854 273.955 23.94 274.113 23.6507C274.281 23.3614 274.505 23.128 274.785 22.9507C275.065 22.7734 275.392 22.6427 275.765 22.5587C276.139 22.4747 276.531 22.4327 276.941 22.4327C277.072 22.4327 277.207 22.442 277.347 22.4607C277.487 22.47 277.618 22.4887 277.739 22.5167C277.87 22.5354 277.982 22.554 278.075 22.5727C278.169 22.5914 278.234 22.6054 278.271 22.6147V22.2507C278.271 22.036 278.248 21.826 278.201 21.6207C278.155 21.406 278.071 21.2194 277.949 21.0607C277.828 20.8927 277.66 20.762 277.445 20.6687C277.24 20.566 276.969 20.5147 276.633 20.5147C276.204 20.5147 275.826 20.5474 275.499 20.6127C275.182 20.6687 274.944 20.7294 274.785 20.7947L274.631 19.7167C274.799 19.642 275.079 19.572 275.471 19.5067C275.863 19.432 276.288 19.3947 276.745 19.3947ZM287.672 26.8567H286.37V23.6367H283.01V26.8567H281.708V19.5767H283.01V22.5447H286.37V19.5767H287.672V26.8567ZM292.375 25.9187C292.683 25.9187 292.954 25.914 293.187 25.9047C293.43 25.886 293.63 25.858 293.789 25.8207V23.6507C293.696 23.604 293.542 23.5667 293.327 23.5387C293.122 23.5014 292.87 23.4827 292.571 23.4827C292.375 23.4827 292.165 23.4967 291.941 23.5247C291.726 23.5527 291.526 23.6134 291.339 23.7067C291.162 23.7907 291.012 23.912 290.891 24.0707C290.77 24.22 290.709 24.4207 290.709 24.6727C290.709 25.1394 290.858 25.466 291.157 25.6527C291.456 25.83 291.862 25.9187 292.375 25.9187ZM292.263 19.3947C292.786 19.3947 293.224 19.4647 293.579 19.6047C293.943 19.7354 294.232 19.9267 294.447 20.1787C294.671 20.4214 294.83 20.7154 294.923 21.0607C295.016 21.3967 295.063 21.77 295.063 22.1807V26.7307C294.951 26.7494 294.792 26.7774 294.587 26.8147C294.391 26.8427 294.167 26.8707 293.915 26.8987C293.663 26.9267 293.388 26.95 293.089 26.9687C292.8 26.9967 292.51 27.0107 292.221 27.0107C291.81 27.0107 291.432 26.9687 291.087 26.8847C290.742 26.8007 290.443 26.67 290.191 26.4927C289.939 26.306 289.743 26.0634 289.603 25.7647C289.463 25.466 289.393 25.1067 289.393 24.6867C289.393 24.2854 289.472 23.94 289.631 23.6507C289.799 23.3614 290.023 23.128 290.303 22.9507C290.583 22.7734 290.91 22.6427 291.283 22.5587C291.656 22.4747 292.048 22.4327 292.459 22.4327C292.59 22.4327 292.725 22.442 292.865 22.4607C293.005 22.47 293.136 22.4887 293.257 22.5167C293.388 22.5354 293.5 22.554 293.593 22.5727C293.686 22.5914 293.752 22.6054 293.789 22.6147V22.2507C293.789 22.036 293.766 21.826 293.719 21.6207C293.672 21.406 293.588 21.2194 293.467 21.0607C293.346 20.8927 293.178 20.762 292.963 20.6687C292.758 20.566 292.487 20.5147 292.151 20.5147C291.722 20.5147 291.344 20.5474 291.017 20.6127C290.7 20.6687 290.462 20.7294 290.303 20.7947L290.149 19.7167C290.317 19.642 290.597 19.572 290.989 19.5067C291.381 19.432 291.806 19.3947 292.263 19.3947ZM299.759 20.6687C299.759 20.9767 299.75 21.308 299.731 21.6627C299.722 22.008 299.699 22.358 299.661 22.7127C299.624 23.058 299.573 23.4034 299.507 23.7487C299.442 24.0847 299.358 24.402 299.255 24.7007C299.153 24.9994 299.022 25.2794 298.863 25.5407C298.714 25.802 298.527 26.0354 298.303 26.2407C298.079 26.4367 297.818 26.6047 297.519 26.7447C297.221 26.8754 296.871 26.9594 296.469 26.9967L296.287 25.9047C296.745 25.8114 297.104 25.6387 297.365 25.3867C297.636 25.1347 297.851 24.8267 298.009 24.4627C298.149 24.1454 298.252 23.786 298.317 23.3847C298.383 22.9834 298.429 22.568 298.457 22.1387C298.485 21.7 298.499 21.2614 298.499 20.8227C298.509 20.384 298.513 19.9687 298.513 19.5767H303.357V26.8567H302.055V20.6687H299.759ZM311.711 19.5767V26.8567H310.451V21.3127C310.171 21.6674 309.863 22.0827 309.527 22.5587C309.191 23.0347 308.855 23.5294 308.519 24.0427C308.183 24.5467 307.861 25.046 307.553 25.5407C307.245 26.0354 306.979 26.474 306.755 26.8567H305.593V19.5767H306.853V24.8127C307.095 24.4114 307.371 23.9727 307.679 23.4967C307.987 23.0114 308.304 22.5354 308.631 22.0687C308.967 21.5927 309.298 21.14 309.625 20.7107C309.961 20.272 310.273 19.894 310.563 19.5767H311.711ZM319.084 19.5767V20.6687H316.718V26.8567H315.416V20.6687H313.05V19.5767H319.084ZM326.545 19.5767V26.8567H325.285V21.3127C325.005 21.6674 324.697 22.0827 324.361 22.5587C324.025 23.0347 323.689 23.5294 323.353 24.0427C323.017 24.5467 322.695 25.046 322.387 25.5407C322.079 26.0354 321.813 26.474 321.589 26.8567H320.427V19.5767H321.687V24.8127C321.929 24.4114 322.205 23.9727 322.513 23.4967C322.821 23.0114 323.138 22.5354 323.465 22.0687C323.801 21.5927 324.132 21.14 324.459 20.7107C324.795 20.272 325.107 19.894 325.397 19.5767H326.545ZM331.44 22.8947C331.729 23.1 332.042 23.3614 332.378 23.6787C332.714 23.9867 333.041 24.3227 333.358 24.6867C333.685 25.0507 333.988 25.424 334.268 25.8067C334.548 26.18 334.786 26.53 334.982 26.8567H333.442C333.237 26.5394 332.994 26.2174 332.714 25.8907C332.443 25.5547 332.159 25.2327 331.86 24.9247C331.561 24.6167 331.258 24.332 330.95 24.0707C330.642 23.8094 330.353 23.59 330.082 23.4127V26.8567H328.78V19.5767H330.082V22.6987C330.306 22.484 330.563 22.2367 330.852 21.9567C331.141 21.6674 331.431 21.378 331.72 21.0887C332.019 20.79 332.294 20.51 332.546 20.2487C332.798 19.978 333.003 19.754 333.162 19.5767H334.674C334.469 19.8007 334.226 20.0574 333.946 20.3467C333.675 20.6267 333.391 20.916 333.092 21.2147C332.803 21.5134 332.513 21.812 332.224 22.1107C331.935 22.4 331.673 22.6614 331.44 22.8947ZM342.418 19.5767V26.8567H341.158V21.3127C340.878 21.6674 340.57 22.0827 340.234 22.5587C339.898 23.0347 339.562 23.5294 339.226 24.0427C338.89 24.5467 338.568 25.046 338.26 25.5407C337.952 26.0354 337.686 26.474 337.462 26.8567H336.3V19.5767H337.56V24.8127C337.802 24.4114 338.078 23.9727 338.386 23.4967C338.694 23.0114 339.011 22.5354 339.338 22.0687C339.674 21.5927 340.005 21.14 340.332 20.7107C340.668 20.272 340.98 19.894 341.27 19.5767H342.418Z"
        fill="#6DACDE" />
    <defs>
        <clipPath id="clip0_22108_26912">
            <rect width="299" height="90" fill="white" />
        </clipPath>
    </defs>
</svg>